<svg width="158" height="82" viewBox="0 0 158 82" fill="none" xmlns="http://www.w3.org/2000/svg">
  <g clip-path="url(#clip0_73_32)">
    <path d="M110.821 31.3787L111.243 27.8806C111.301 27.3977 111.716 27.0505 112.168 27.1051L123.646 28.4909C124.099 28.5455 124.419 28.9814 124.36 29.4644L123.938 32.9624L110.821 31.3787Z" fill="url(#paint0_linear_73_32)"/>
    <path d="M123.727 34.7109L120.56 60.9462L107.442 59.3625L110.609 33.1272L123.727 34.7109ZM112.641 43.8583L119.2 44.6501C119.653 44.7048 120.063 44.3931 120.116 43.9541L120.884 37.594C120.937 37.155 120.612 36.7547 120.16 36.7L113.601 35.9082C113.148 35.8535 112.738 36.1652 112.685 36.6042L111.917 42.9643C111.864 43.4033 112.188 43.8036 112.641 43.8583Z" fill="url(#paint1_linear_73_32)"/>
    <path d="M120.032 65.3193L119.504 69.6919C119.446 70.1748 119.031 70.5221 118.578 70.4674L107.1 69.0817C106.648 69.027 106.328 68.5911 106.386 68.1082L106.914 63.7356L120.032 65.3193Z" fill="url(#paint2_linear_73_32)"/>
    <path d="M120.348 62.6953L107.231 61.1116L107.02 62.8606L120.137 64.4443L120.348 62.6953Z" fill="url(#paint3_linear_73_32)"/>
    <path d="M106.356 61.0059L95.8621 59.7389L95.6509 61.4879L106.145 62.7549L106.356 61.0059Z" fill="url(#paint4_linear_73_32)"/>
    <path d="M100.296 23.0104L100.613 20.3868C100.672 19.9039 101.08 19.556 101.526 19.6098L110.406 20.6818C110.851 20.7357 111.166 21.1709 111.107 21.6538L110.791 24.2773L100.296 23.0104Z" fill="url(#paint5_linear_73_32)"/>
    <path d="M110.157 29.5244L99.6631 28.2574L96.0734 57.9907L106.567 59.2577L110.157 29.5244Z" fill="url(#paint6_linear_73_32)"/>
    <path d="M106.04 63.6299L105.512 68.0024C105.453 68.4854 105.045 68.8333 104.599 68.7795L95.7192 67.7074C95.2734 67.6536 94.9592 67.2184 95.0175 66.7355L95.5454 62.3629L106.04 63.6299Z" fill="url(#paint7_linear_73_32)"/>
    <path d="M110.685 25.1514L100.191 23.8844L99.8742 26.5079L110.368 27.7749L110.685 25.1514Z" fill="url(#paint8_linear_73_32)"/>
    <path d="M96.9508 36.0245L96.3241 37.6133L83.196 32.3692L83.8231 30.7805L96.9508 36.0245Z" fill="url(#paint9_linear_73_32)"/>
    <path d="M86.9465 60.4374L74.2304 55.1864L75.466 51.9533L88.1828 57.2044L86.9465 60.4374Z" fill="url(#paint10_linear_73_32)"/>
    <path d="M75.6402 50.8585L82.4781 33.2805L95.7453 38.6601L88.9074 56.2381L75.6402 50.8585Z" fill="url(#paint11_linear_73_32)"/>
    <path d="M97.7345 34.2353L84.4999 28.9183L86.199 24.5874C86.3708 24.169 86.8421 23.9633 87.263 24.1231L98.9857 28.8329C99.3994 29.0023 99.6014 29.4735 99.44 29.8923L97.7345 34.2353Z" fill="url(#paint12_linear_73_32)"/>
    <path d="M73.256 57.0101L86.681 62.2966L85.2631 65.8363C85.1815 66.0357 85.022 66.1948 84.8193 66.2781C84.687 66.3363 84.5409 66.3579 84.3966 66.3404C84.3251 66.3318 84.2545 66.315 84.1869 66.2909L72.2966 61.6087C71.877 61.4403 71.6709 60.9747 71.833 60.5623L73.256 57.0101Z" fill="url(#paint13_linear_73_32)"/>
  </g>
  <g clip-path="url(#clip1_73_32)">
    <path d="M33.1639 29.5604L32.8911 26.0475C32.8534 25.5625 32.4542 25.1979 31.9995 25.2332L20.473 26.1284C20.0183 26.1638 19.6802 26.5856 19.7179 27.0706L19.9907 30.5835L33.1639 29.5604Z" fill="url(#paint14_linear_73_32)"/>
    <path d="M20.127 32.3398L22.1731 58.6863L35.3463 57.6632L33.3002 31.3168L20.127 32.3398ZM30.8129 41.9514L24.2263 42.463C23.7716 42.4983 23.3752 42.1694 23.341 41.7285L22.845 35.3415C22.8107 34.9006 23.1516 34.5145 23.6063 34.4792L30.1929 33.9677C30.6476 33.9324 31.044 34.2612 31.0782 34.7021L31.5743 41.0891C31.6085 41.53 31.2676 41.9161 30.8129 41.9514Z" fill="url(#paint15_linear_73_32)"/>
    <path d="M22.5142 63.0771L22.8552 67.4682C22.8929 67.9532 23.292 68.3178 23.7467 68.2825L35.2733 67.3873C35.728 67.352 36.0661 66.9301 36.0284 66.4451L35.6874 62.0541L22.5142 63.0771Z" fill="url(#paint16_linear_73_32)"/>
    <path d="M22.3096 60.4424L35.4828 59.4193L35.6192 61.1757L22.446 62.1988L22.3096 60.4424Z" fill="url(#paint17_linear_73_32)"/>
    <path d="M36.3611 59.3516L46.8997 58.5331L47.0361 60.2895L36.4975 61.108L36.3611 59.3516Z" fill="url(#paint18_linear_73_32)"/>
    <path d="M44.035 21.6475L43.8304 19.0129C43.7927 18.5279 43.3992 18.1629 42.9515 18.1976L34.0343 18.8902C33.5866 18.9249 33.2542 19.3463 33.2918 19.8313L33.4965 22.466L44.035 21.6475Z" fill="url(#paint19_linear_73_32)"/>
    <path d="M33.9058 27.7354L44.4443 26.9169L46.7633 56.7762L36.2247 57.5946L33.9058 27.7354Z" fill="url(#paint20_linear_73_32)"/>
    <path d="M36.5657 61.9863L36.9067 66.3774C36.9444 66.8624 37.3379 67.2274 37.7856 67.1927L46.7028 66.5001C47.1505 66.4653 47.4829 66.0439 47.4453 65.5589L47.1042 61.1679L36.5657 61.9863Z" fill="url(#paint21_linear_73_32)"/>
    <path d="M33.5647 23.3447L44.1033 22.5263L44.3079 25.1609L33.7693 25.9794L33.5647 23.3447Z" fill="url(#paint22_linear_73_32)"/>
    <path d="M46.823 34.7937L47.3814 36.4077L60.7211 31.728L60.1624 30.114L46.823 34.7937Z" fill="url(#paint23_linear_73_32)"/>
    <path d="M55.7774 59.6101L68.7057 54.906L67.6091 51.6231L54.6799 56.3273L55.7774 59.6101Z" fill="url(#paint24_linear_73_32)"/>
    <path d="M67.4817 50.522L61.3994 32.6685L47.9149 37.4776L53.9973 55.3311L67.4817 50.522Z" fill="url(#paint25_linear_73_32)"/>
    <path d="M46.1162 32.9716L59.5655 28.2236L58.0525 23.8243C57.8988 23.3989 57.4366 23.1733 57.0093 23.315L45.0965 27.5208C44.676 27.6724 44.4541 28.1346 44.5975 28.5599L46.1162 32.9716Z" fill="url(#paint26_linear_73_32)"/>
    <path d="M69.6018 56.7695L55.9637 61.4789L57.2294 65.0758C57.3024 65.2785 57.455 65.4443 57.6539 65.5362C57.7836 65.5999 57.9287 65.6277 58.0736 65.6164C58.1454 65.6109 58.2166 65.597 58.2852 65.5759L70.3643 61.4048C70.7907 61.2544 71.0165 60.798 70.8721 60.3791L69.6018 56.7695Z" fill="url(#paint27_linear_73_32)"/>
  </g>
  <path d="M0.910156 42.9004C1.55599 43.0013 2.14128 43.0921 2.66602 43.1729C3.19076 43.2334 3.64486 43.2839 4.02832 43.3242C4.47233 43.3848 4.86589 43.4352 5.20898 43.4756C5.63281 43.5361 6.26855 43.4655 7.11621 43.2637C7.96387 43.0417 8.89225 42.8398 9.90137 42.6582C10.9307 42.4564 11.9801 42.3454 13.0498 42.3252C14.1195 42.2848 15.0983 42.4766 15.9863 42.9004C16.8743 43.3242 17.6009 43.748 18.166 44.1719C18.7311 44.5957 19.1751 45.0498 19.498 45.5342C19.8411 45.9984 20.0833 46.4928 20.2246 47.0176C20.3659 47.5423 20.4466 48.1175 20.4668 48.7432C20.4466 49.6715 20.2246 50.5697 19.8008 51.4375C19.6191 51.8008 19.377 52.1842 19.0742 52.5879C18.7917 52.9714 18.4385 53.3447 18.0146 53.708C17.5908 54.0713 17.0863 54.4144 16.501 54.7373C15.9359 55.0602 15.2699 55.3428 14.5029 55.585C15.2497 55.807 15.8652 56.0693 16.3496 56.3721C16.8542 56.6748 17.2578 56.9574 17.5605 57.2197C17.9238 57.5426 18.1963 57.8555 18.3779 58.1582C18.5999 58.582 18.7513 58.9453 18.832 59.248C18.9128 59.5508 18.9632 59.8434 18.9834 60.126C19.0238 60.3883 19.0742 60.6608 19.1348 60.9434C19.1953 61.2259 19.3265 61.5488 19.5283 61.9121C19.6898 62.1947 19.8815 62.4873 20.1035 62.79C20.3053 63.0524 20.5374 63.335 20.7998 63.6377C21.0824 63.9404 21.4255 64.2331 21.8291 64.5156C21.264 64.5358 20.7393 64.5459 20.2549 64.5459C19.7907 64.5459 19.387 64.5459 19.0439 64.5459C18.6403 64.5459 18.2568 64.5358 17.8936 64.5156C17.5303 64.4954 17.0762 64.4854 16.5312 64.4854C16.0671 64.4854 15.4717 64.4854 14.7451 64.4854C14.0387 64.4854 13.181 64.4954 12.1719 64.5156C12.6159 64.1725 12.9792 63.8294 13.2617 63.4863C13.5443 63.1432 13.7663 62.8304 13.9277 62.5479C14.1094 62.2249 14.2406 61.9121 14.3213 61.6094C14.4222 61.0645 14.4323 60.4993 14.3516 59.9141C14.291 59.4095 14.1296 58.8545 13.8672 58.249C13.6048 57.6234 13.181 56.9977 12.5957 56.3721C12.0104 56.473 11.516 56.5537 11.1123 56.6143C10.7288 56.6546 10.3958 56.695 10.1133 56.7354C9.79036 56.7757 9.52799 56.806 9.32617 56.8262C9.14453 56.8464 8.94271 56.8665 8.7207 56.8867C8.53906 56.9069 8.33724 56.9372 8.11523 56.9775C7.91341 56.9977 7.72168 57.028 7.54004 57.0684C7.49967 57.9362 7.49967 58.693 7.54004 59.3389C7.5804 59.9645 7.63086 60.4893 7.69141 60.9131C7.77214 61.4176 7.86296 61.8516 7.96387 62.2148C8.06478 62.5781 8.20605 62.9313 8.3877 63.2744C8.52897 63.557 8.71061 63.8597 8.93262 64.1826C9.15462 64.4854 9.4069 64.7376 9.68945 64.9395C9.16471 64.9395 8.66016 64.9395 8.17578 64.9395C7.71159 64.9395 7.28776 64.9294 6.9043 64.9092C6.46029 64.9092 6.03646 64.8991 5.63281 64.8789C5.22917 64.8587 4.77507 64.8486 4.27051 64.8486C3.84668 64.8486 3.34212 64.8486 2.75684 64.8486C2.19173 64.8486 1.57617 64.8587 0.910156 64.8789C1.4349 64.334 1.84863 63.8698 2.15137 63.4863C2.4541 63.1029 2.6862 62.7799 2.84766 62.5176C3.0293 62.235 3.1403 61.9928 3.18066 61.791C3.22103 61.4681 3.2513 60.8929 3.27148 60.0654C3.31185 59.2178 3.34212 58.249 3.3623 57.1592C3.38249 56.0693 3.39258 54.929 3.39258 53.7383C3.39258 52.5475 3.38249 51.4375 3.3623 50.4082C3.34212 49.3587 3.32194 48.4606 3.30176 47.7139C3.28158 46.9671 3.26139 46.4928 3.24121 46.291C3.18066 45.9277 3.04948 45.5645 2.84766 45.2012C2.6862 44.8783 2.4541 44.515 2.15137 44.1113C1.84863 43.7077 1.4349 43.304 0.910156 42.9004ZM12.3535 53.5566C12.5553 53.4355 12.7269 53.3145 12.8682 53.1934C13.0094 53.0723 13.1305 52.8805 13.2314 52.6182C13.3324 52.3356 13.4131 51.9421 13.4736 51.4375C13.5544 50.9329 13.6452 50.2467 13.7461 49.3789C13.8268 48.5111 13.7663 47.7946 13.5645 47.2295C13.3828 46.6644 13.1305 46.2204 12.8076 45.8975C12.5049 45.5544 12.1618 45.3223 11.7783 45.2012C11.415 45.0599 11.0921 44.9893 10.8096 44.9893C10.2445 44.9893 9.68945 45.1608 9.14453 45.5039C8.59961 45.847 8.18587 46.3112 7.90332 46.8965C7.80241 47.1589 7.71159 47.5928 7.63086 48.1982C7.57031 48.723 7.52995 49.4495 7.50977 50.3779C7.48958 51.3063 7.51986 52.5273 7.60059 54.041C8.36751 54.1621 9.04362 54.2126 9.62891 54.1924C10.2142 54.152 10.7087 54.0814 11.1123 53.9805C11.5967 53.8796 12.0104 53.7383 12.3535 53.5566ZM23.9482 52.7393C24.0492 52.6182 24.1097 52.3962 24.1299 52.0732C24.1702 51.7301 24.251 51.3467 24.3721 50.9229C24.5133 50.499 24.7454 50.055 25.0684 49.5908C25.3913 49.1266 25.916 48.6927 26.6426 48.2891C27.349 47.8854 28.0352 47.6432 28.7012 47.5625C29.3672 47.4818 30.0029 47.512 30.6084 47.6533C31.2139 47.7946 31.779 48.0166 32.3037 48.3193C32.8486 48.6221 33.3431 48.9551 33.7871 49.3184C34.0898 49.5605 34.332 49.9137 34.5137 50.3779C34.6953 50.8219 34.8366 51.3265 34.9375 51.8916C35.0384 52.4567 35.109 53.0521 35.1494 53.6777C35.21 54.2832 35.2503 54.8786 35.2705 55.4639C35.2907 56.029 35.3008 56.5537 35.3008 57.0381C35.321 57.5023 35.3613 57.8857 35.4219 58.1885C35.5026 58.6325 35.6439 59.016 35.8457 59.3389C36.0475 59.6416 36.2695 59.904 36.5117 60.126C36.7539 60.3278 36.9961 60.4893 37.2383 60.6104C37.4805 60.7314 37.6924 60.8223 37.874 60.8828C37.9951 60.9434 38.1061 60.9837 38.207 61.0039C38.4089 61.0846 38.5501 61.0846 38.6309 61.0039C38.5098 61.2865 38.3988 61.5286 38.2979 61.7305C38.1969 61.9323 38.1162 62.1038 38.0557 62.2451C37.9749 62.4066 37.9043 62.5378 37.8438 62.6387C37.7832 62.7598 37.7126 62.8708 37.6318 62.9717C37.5713 63.0726 37.4906 63.1836 37.3896 63.3047C37.2887 63.4258 37.1878 63.557 37.0869 63.6982C36.8245 63.5973 36.5723 63.4762 36.3301 63.335C36.1081 63.1937 35.9062 63.0625 35.7246 62.9414C35.5026 62.8001 35.3008 62.6589 35.1191 62.5176C34.9375 62.3763 34.766 62.2148 34.6045 62.0332C34.4632 61.8717 34.3118 61.7002 34.1504 61.5186C34.0091 61.3369 33.888 61.1351 33.7871 60.9131C33.666 61.1755 33.3734 61.5488 32.9092 62.0332C32.4652 62.5176 31.8799 62.9616 31.1533 63.3652C30.4268 63.7487 29.5791 64.0212 28.6104 64.1826C27.6618 64.3441 26.6123 64.2331 25.4619 63.8496C24.9574 63.6882 24.4831 63.4561 24.0391 63.1533C23.5951 62.8304 23.2116 62.4469 22.8887 62.0029C22.5859 61.5589 22.3639 61.0544 22.2227 60.4893C22.1016 59.904 22.1117 59.2581 22.2529 58.5518C22.3942 57.8454 22.6465 57.25 23.0098 56.7656C23.373 56.2812 23.807 55.8877 24.3115 55.585C24.8161 55.2822 25.3812 55.0501 26.0068 54.8887C26.6325 54.7272 27.2783 54.6162 27.9443 54.5557C28.4691 54.5355 28.9938 54.5658 29.5186 54.6465C29.9626 54.7272 30.4268 54.8786 30.9111 55.1006C31.3955 55.3024 31.8092 55.6152 32.1523 56.0391C32.1322 54.9694 32.0918 54.1217 32.0312 53.4961C31.9909 52.8503 31.9505 52.3558 31.9102 52.0127C31.8294 51.609 31.7588 51.3265 31.6982 51.165C31.5973 51.0238 31.4863 50.8623 31.3652 50.6807C31.2643 50.499 31.1331 50.3376 30.9717 50.1963C30.8102 50.0348 30.6084 49.9036 30.3662 49.8027C30.124 49.7018 29.8415 49.6615 29.5186 49.6816C29.1755 49.7018 28.903 49.7926 28.7012 49.9541C28.4993 50.1156 28.3379 50.3073 28.2168 50.5293C28.1159 50.7311 28.0553 50.9531 28.0352 51.1953C28.015 51.4375 28.0251 51.6494 28.0654 51.8311C28.1058 51.9521 28.1663 52.0833 28.2471 52.2246C28.3278 52.3457 28.4388 52.4769 28.5801 52.6182C28.7214 52.7594 28.9131 52.8805 29.1553 52.9814C28.6911 53.042 28.2773 53.0924 27.9141 53.1328C27.5508 53.153 27.238 53.1833 26.9756 53.2236C26.6729 53.264 26.4105 53.2943 26.1885 53.3145C25.9665 53.3346 25.7041 53.375 25.4014 53.4355C25.139 53.4759 24.8161 53.5264 24.4326 53.5869C24.0492 53.6475 23.6051 53.7282 23.1006 53.8291C23.2217 53.6878 23.3327 53.5566 23.4336 53.4355C23.5345 53.2943 23.6253 53.1732 23.7061 53.0723C23.7868 52.9512 23.8675 52.8402 23.9482 52.7393ZM28.4893 56.3418C28.126 56.362 27.7627 56.4528 27.3994 56.6143C27.0361 56.7555 26.7132 56.9674 26.4307 57.25C26.1481 57.5124 25.9059 57.8252 25.7041 58.1885C25.5225 58.5316 25.4316 58.915 25.4316 59.3389C25.4316 59.7627 25.5326 60.1361 25.7344 60.459C25.9564 60.7617 26.2389 61.014 26.582 61.2158C26.9453 61.4176 27.3288 61.5387 27.7324 61.5791C28.1562 61.6195 28.57 61.5791 28.9736 61.458C29.3571 61.3167 29.7204 61.0947 30.0635 60.792C30.4066 60.4691 30.6992 60.126 30.9414 59.7627C31.1836 59.3792 31.3551 59.0059 31.4561 58.6426C31.557 58.2591 31.5671 57.9463 31.4863 57.7041C31.3249 57.1794 30.9616 56.8161 30.3965 56.6143C29.8314 56.3923 29.1956 56.3014 28.4893 56.3418ZM39.2666 61.6699C39.4079 61.0039 39.5088 60.4186 39.5693 59.9141C39.6501 59.3893 39.7106 58.9554 39.751 58.6123C39.7913 58.2087 39.8115 57.8656 39.8115 57.583C39.7913 57.2399 39.7712 56.8363 39.751 56.3721C39.751 55.8877 39.7308 55.4134 39.6904 54.9492C39.6702 54.4648 39.64 54.041 39.5996 53.6777C39.5592 53.2943 39.5088 53.0218 39.4482 52.8604C39.3675 52.6989 39.2565 52.5273 39.1152 52.3457C38.8327 52.0026 38.4189 51.6696 37.874 51.3467C38.3382 51.2458 38.7318 51.165 39.0547 51.1045C39.3978 51.0238 39.6803 50.9531 39.9023 50.8926C40.1445 50.8118 40.3564 50.7412 40.5381 50.6807C40.6995 50.6201 40.8913 50.5596 41.1133 50.499C41.2949 50.4587 41.5169 50.4082 41.7793 50.3477C42.0417 50.2871 42.3444 50.2165 42.6875 50.1357L42.5967 52.8906C43.2425 52.1237 43.8984 51.5485 44.5645 51.165C45.2305 50.7816 45.8561 50.5091 46.4414 50.3477C47.1074 50.1458 47.7633 50.0449 48.4092 50.0449C49.2165 50.0853 49.9632 50.2165 50.6494 50.4385C51.3558 50.6605 51.9613 50.9229 52.4658 51.2256C52.9906 51.5081 53.4144 51.8109 53.7373 52.1338C54.0602 52.4567 54.252 52.7393 54.3125 52.9814C54.5547 53.7686 54.6152 54.4951 54.4941 55.1611C54.373 55.807 54.2116 56.4427 54.0098 57.0684C53.8281 57.6738 53.6667 58.2793 53.5254 58.8848C53.4043 59.4902 53.4548 60.1462 53.6768 60.8525C53.7575 61.0342 53.8382 61.2158 53.9189 61.3975C53.9997 61.5589 54.1006 61.7204 54.2217 61.8818C54.3428 62.0433 54.484 62.1745 54.6455 62.2754C54.4235 62.2552 54.2015 62.2451 53.9795 62.2451C53.7575 62.2249 53.5557 62.2048 53.374 62.1846C53.152 62.1644 52.9502 62.1442 52.7686 62.124C52.5667 62.1038 52.2943 62.0938 51.9512 62.0938C51.3659 62.0938 50.4577 62.124 49.2266 62.1846C49.4082 61.7607 49.5495 61.4076 49.6504 61.125C49.7715 60.8223 49.8724 60.5801 49.9531 60.3984C50.0339 60.1764 50.0944 60.0049 50.1348 59.8838C50.377 59.2985 50.5182 58.6325 50.5586 57.8857C50.6191 57.139 50.5687 56.3822 50.4072 55.6152C50.3467 55.3529 50.2458 55.04 50.1045 54.6768C49.9632 54.3135 49.7715 53.9603 49.5293 53.6172C49.3073 53.2741 49.0348 52.9814 48.7119 52.7393C48.4092 52.4971 48.056 52.3558 47.6523 52.3154C47.2487 52.2751 46.7946 52.376 46.29 52.6182C45.8057 52.8604 45.2809 53.3044 44.7158 53.9502C44.292 54.4951 43.959 55.1611 43.7168 55.9482C43.4948 56.6143 43.3434 57.4518 43.2627 58.4609C43.182 59.4499 43.3031 60.6104 43.626 61.9424C43.3434 61.902 43.0811 61.8818 42.8389 61.8818C42.5967 61.8617 42.3949 61.8415 42.2334 61.8213C42.0316 61.8011 41.8499 61.7809 41.6885 61.7607C41.5068 61.7607 41.305 61.7507 41.083 61.7305C40.8812 61.7305 40.6289 61.7305 40.3262 61.7305C40.0234 61.7103 39.6702 61.6901 39.2666 61.6699ZM64.6055 51.4375C65.1302 51.4375 65.6751 51.5384 66.2402 51.7402C66.8053 51.9219 67.3503 52.1641 67.875 52.4668C68.3997 52.7493 68.874 53.0622 69.2979 53.4053C69.7419 53.7282 70.1051 54.041 70.3877 54.3438C70.8923 54.8887 71.2354 55.6253 71.417 56.5537C71.6188 57.4619 71.6592 58.4004 71.5381 59.3691C71.417 60.3177 71.1344 61.2158 70.6904 62.0635C70.2464 62.9111 69.6309 63.5368 68.8438 63.9404C68.2786 64.223 67.7236 64.445 67.1787 64.6064C66.6338 64.7679 66.109 64.889 65.6045 64.9697C65.0999 65.0505 64.6257 65.0908 64.1816 65.0908C63.7376 65.0908 63.3542 65.0807 63.0312 65.0605C62.4258 65.0202 61.79 64.8083 61.124 64.4248C60.4782 64.0413 59.8626 63.5671 59.2773 63.002C58.7122 62.4368 58.2279 61.8213 57.8242 61.1553C57.4206 60.4691 57.1784 59.8232 57.0977 59.2178C56.9766 58.3903 56.9564 57.5225 57.0371 56.6143C57.1178 55.7061 57.4105 54.8685 57.915 54.1016C58.4398 53.3346 59.2269 52.6989 60.2764 52.1943C61.346 51.6898 62.7891 51.4375 64.6055 51.4375ZM63.6064 63.1836C63.8285 63.224 64.1312 63.1735 64.5146 63.0322C64.8981 62.8708 65.2715 62.6185 65.6348 62.2754C66.0182 61.9323 66.3512 61.4984 66.6338 60.9736C66.9365 60.4287 67.1182 59.7728 67.1787 59.0059C67.2393 58.2591 67.2393 57.5729 67.1787 56.9473C67.1383 56.3216 67.0475 55.7767 66.9062 55.3125C66.765 54.8281 66.6035 54.4346 66.4219 54.1318C66.2402 53.8291 66.0485 53.6172 65.8467 53.4961C65.5036 53.3145 65.0898 53.1732 64.6055 53.0723C64.1211 52.9512 63.7074 52.9714 63.3643 53.1328C63.2028 53.2135 63.001 53.3851 62.7588 53.6475C62.5166 53.9098 62.2744 54.2428 62.0322 54.6465C61.79 55.0299 61.568 55.474 61.3662 55.9785C61.1846 56.4831 61.0534 57.0078 60.9727 57.5527C60.8919 58.0977 60.8717 58.6829 60.9121 59.3086C60.9727 59.9342 61.1038 60.5296 61.3057 61.0947C61.5075 61.6396 61.79 62.1139 62.1533 62.5176C62.5368 62.901 63.0212 63.123 63.6064 63.1836ZM72.9912 43.748C73.4554 43.8691 73.8792 43.96 74.2627 44.0205C74.6663 44.0609 75.0094 44.0911 75.292 44.1113C75.6351 44.1315 75.9479 44.1416 76.2305 44.1416C76.513 44.1416 76.8662 44.1214 77.29 44.0811C78.0368 44.0205 79.0964 43.8691 80.4688 43.627C80.2467 43.7884 80.0348 43.9499 79.833 44.1113C79.6514 44.2526 79.4899 44.3939 79.3486 44.5352L78.8945 44.9893C78.6322 45.3525 78.3698 45.9681 78.1074 46.8359C77.8854 47.5827 77.6432 48.6322 77.3809 49.9844C77.1387 51.3366 76.9167 53.1328 76.7148 55.373C77.7038 54.4043 78.6322 53.6777 79.5 53.1934C80.388 52.6888 81.165 52.3255 81.8311 52.1035C82.6182 51.8613 83.3346 51.7301 83.9805 51.71C84.8079 51.7705 85.5244 51.9421 86.1299 52.2246C86.7555 52.487 87.2803 52.8099 87.7041 53.1934C88.1481 53.5566 88.5013 53.9401 88.7637 54.3438C89.0462 54.7272 89.2581 55.0703 89.3994 55.373C89.4801 55.5749 89.5407 55.9482 89.5811 56.4932C89.6416 57.0179 89.6517 57.6234 89.6113 58.3096C89.571 58.9958 89.46 59.7223 89.2783 60.4893C89.1169 61.236 88.8444 61.9323 88.4609 62.5781C88.0977 63.2038 87.6133 63.7285 87.0078 64.1523C86.4225 64.5762 85.6859 64.8083 84.7979 64.8486C83.7686 64.8486 82.7695 64.7275 81.8008 64.4854C80.9733 64.2835 80.0954 63.9303 79.167 63.4258C78.2588 62.901 77.4818 62.1543 76.8359 61.1855C76.8359 61.4277 76.8359 61.6699 76.8359 61.9121C76.8359 62.1341 76.846 62.3258 76.8662 62.4873C76.8864 62.7093 76.9066 62.901 76.9268 63.0625C76.9469 63.2441 76.9974 63.4359 77.0781 63.6377C77.1387 63.7992 77.2295 64.001 77.3506 64.2432C77.4919 64.4652 77.6735 64.6872 77.8955 64.9092C77.6735 64.889 77.4515 64.8789 77.2295 64.8789C77.0075 64.8587 76.7855 64.8587 76.5635 64.8789C76.3213 64.8991 76.0791 64.9193 75.8369 64.9395C75.5947 64.9596 75.3424 64.9899 75.0801 65.0303C74.8581 65.0706 74.5957 65.1211 74.293 65.1816C73.9902 65.2422 73.6774 65.3128 73.3545 65.3936C73.415 65.2119 73.4655 64.9495 73.5059 64.6064C73.5462 64.2432 73.5866 63.8496 73.627 63.4258C73.6875 62.9818 73.7279 62.5176 73.748 62.0332C73.7884 61.5488 73.8288 61.0645 73.8691 60.5801C73.9499 59.4701 74.0205 58.2591 74.0811 56.9473C74.1416 54.9089 74.1517 53.0117 74.1113 51.2559C74.0911 50.5091 74.0508 49.7523 73.9902 48.9854C73.9499 48.2184 73.8893 47.502 73.8086 46.8359C73.7279 46.1497 73.6169 45.5443 73.4756 45.0195C73.3545 44.4746 73.193 44.0508 72.9912 43.748ZM76.9268 58.4912C77.2497 59.0765 77.5928 59.5811 77.9561 60.0049C78.3193 60.4085 78.6826 60.7516 79.0459 61.0342C79.4092 61.3167 79.7624 61.5387 80.1055 61.7002C80.4688 61.8617 80.8118 61.9827 81.1348 62.0635C81.8815 62.2653 82.6182 62.2855 83.3447 62.124C84.0713 61.9222 84.6364 61.5186 85.04 60.9131C85.4437 60.3076 85.7565 59.6214 85.9785 58.8545C86.0794 58.4912 86.14 58.027 86.1602 57.4619C86.2005 56.8968 86.14 56.3519 85.9785 55.8271C85.8372 55.2822 85.5749 54.8079 85.1914 54.4043C84.8079 53.9805 84.2529 53.7282 83.5264 53.6475C83.0218 53.6475 82.4365 53.7887 81.7705 54.0713C81.1852 54.3135 80.4889 54.7171 79.6816 55.2822C78.8743 55.8271 77.9561 56.6445 76.9268 57.7344V58.4912ZM98.9053 60.126C99.4704 60.126 99.9951 60.0654 100.479 59.9443C100.883 59.8434 101.267 59.682 101.63 59.46C102.013 59.2178 102.266 58.8646 102.387 58.4004C102.79 58.4811 103.133 58.5518 103.416 58.6123C103.699 58.6527 103.941 58.693 104.143 58.7334C104.365 58.7939 104.556 58.8343 104.718 58.8545C104.879 58.8949 105.071 58.9352 105.293 58.9756C105.495 59.016 105.737 59.0664 106.02 59.127C106.322 59.1673 106.675 59.2279 107.079 59.3086C106.776 59.2682 106.464 59.2985 106.141 59.3994C105.838 59.5003 105.545 59.6113 105.263 59.7324C104.94 59.8737 104.637 60.0452 104.354 60.2471C104.173 60.3682 103.961 60.5498 103.719 60.792C103.497 61.0342 103.174 61.2663 102.75 61.4883C102.326 61.7103 101.761 61.902 101.055 62.0635C100.368 62.2048 99.4805 62.2552 98.3906 62.2148C97.0788 62.1745 95.9788 61.9424 95.0908 61.5186C94.2028 61.0745 93.4863 60.5397 92.9414 59.9141C92.3965 59.2682 92.0029 58.5719 91.7607 57.8252C91.5186 57.0785 91.3874 56.3822 91.3672 55.7363C91.347 55.0905 91.5387 54.4144 91.9424 53.708C92.346 53.0016 92.9111 52.3558 93.6377 51.7705C94.3844 51.1852 95.2826 50.7109 96.332 50.3477C97.3815 49.9642 98.5319 49.7725 99.7832 49.7725C100.51 49.7725 101.176 49.8633 101.781 50.0449C102.407 50.2064 102.972 50.4284 103.477 50.7109C104.001 50.9935 104.455 51.3164 104.839 51.6797C105.222 52.0228 105.545 52.376 105.808 52.7393C106.07 53.1227 106.292 53.5264 106.474 53.9502C106.635 54.3135 106.766 54.7272 106.867 55.1914C106.968 55.6556 106.998 56.1299 106.958 56.6143C105.424 56.6546 104.183 56.6849 103.234 56.7051C102.306 56.7253 101.579 56.7354 101.055 56.7354H99.6924H98.6631C98.2998 56.7354 97.8255 56.7454 97.2402 56.7656C96.6549 56.7858 95.9385 56.8161 95.0908 56.8564C95.1917 57.6637 95.444 58.2894 95.8477 58.7334C96.2715 59.1572 96.7155 59.4801 97.1797 59.7021C97.7044 59.9443 98.2796 60.0856 98.9053 60.126ZM96.1807 54.6768C96.8265 54.7171 97.3613 54.7474 97.7852 54.7676C98.2292 54.7878 98.5924 54.8079 98.875 54.8281C99.1777 54.8483 99.4199 54.8584 99.6016 54.8584H100.358C100.863 54.8584 101.801 54.8281 103.174 54.7676C103.113 53.8796 102.922 53.2035 102.599 52.7393C102.296 52.2751 101.973 51.932 101.63 51.71C101.226 51.4678 100.782 51.3265 100.298 51.2861C98.986 51.3063 98.0072 51.5788 97.3613 52.1035C96.7357 52.6283 96.3421 53.486 96.1807 54.6768ZM108.865 65.8477C109.067 65.5449 109.229 65.2624 109.35 65C109.471 64.7376 109.572 64.5156 109.652 64.334C109.733 64.112 109.794 63.9102 109.834 63.7285C109.854 63.6074 109.864 63.2542 109.864 62.6689C109.864 62.0837 109.844 61.347 109.804 60.459C109.784 59.571 109.753 58.5719 109.713 57.4619C109.693 56.3519 109.652 55.2217 109.592 54.0713C109.551 52.9209 109.501 51.8008 109.44 50.7109C109.4 49.6211 109.36 48.6423 109.319 47.7744C109.279 46.8864 109.239 46.1598 109.198 45.5947C109.158 45.0296 109.128 44.7067 109.107 44.626C109.067 44.5049 108.996 44.3838 108.896 44.2627C108.694 44.0205 108.351 43.7884 107.866 43.5664C108.896 43.304 109.683 43.0921 110.228 42.9307C110.55 42.8499 110.833 42.7692 111.075 42.6885C111.297 42.6077 111.519 42.527 111.741 42.4463C111.923 42.3656 112.125 42.2747 112.347 42.1738C112.569 42.0527 112.771 41.9215 112.952 41.7803C112.851 42.3656 112.771 42.9307 112.71 43.4756C112.649 44.0205 112.599 44.5251 112.559 44.9893C112.518 45.514 112.498 46.0186 112.498 46.5029C112.397 47.4919 112.337 48.5716 112.316 49.7422C112.316 50.8926 112.326 52.0632 112.347 53.2539C112.367 54.4447 112.407 55.6051 112.468 56.7354C112.528 57.8656 112.589 58.8949 112.649 59.8232C112.73 60.7314 112.801 61.5085 112.861 62.1543C112.942 62.7799 113.003 63.1836 113.043 63.3652C113.124 63.668 113.204 63.9606 113.285 64.2432C113.366 64.4854 113.457 64.7376 113.558 65C113.659 65.2826 113.78 65.5046 113.921 65.666H110.984C110.722 65.666 110.47 65.6761 110.228 65.6963C110.006 65.7165 109.773 65.7367 109.531 65.7568C109.289 65.777 109.067 65.8073 108.865 65.8477ZM115.011 51.4678L120.581 51.5283C120.258 52.7594 120.016 53.8089 119.854 54.6768C119.713 55.5446 119.622 56.2712 119.582 56.8564C119.501 57.5225 119.481 58.0876 119.521 58.5518C119.582 58.9756 119.683 59.4297 119.824 59.9141C119.945 60.3177 120.127 60.7819 120.369 61.3066C120.611 61.8314 120.934 62.3561 121.338 62.8809C121.096 62.8001 120.833 62.7396 120.551 62.6992C120.268 62.6589 120.006 62.6286 119.764 62.6084C119.481 62.5882 119.199 62.5882 118.916 62.6084C118.633 62.6286 118.321 62.6589 117.978 62.6992C117.695 62.7396 117.352 62.79 116.948 62.8506C116.545 62.9111 116.121 62.9919 115.677 63.0928C115.979 62.1846 116.212 61.3975 116.373 60.7314C116.555 60.0654 116.686 59.5104 116.767 59.0664C116.847 58.5417 116.898 58.1178 116.918 57.7949C116.918 57.3913 116.918 56.9372 116.918 56.4326C116.918 55.9079 116.918 55.4033 116.918 54.9189C116.918 54.4346 116.908 54.0107 116.888 53.6475C116.868 53.264 116.827 53.0218 116.767 52.9209L116.464 52.6182C116.343 52.5173 116.161 52.376 115.919 52.1943C115.697 51.9925 115.394 51.7503 115.011 51.4678ZM117.16 46.8057C117.584 46.5837 118.008 46.5231 118.432 46.624C118.876 46.7249 119.219 46.9167 119.461 47.1992C119.703 47.4818 119.784 47.8148 119.703 48.1982C119.643 48.5817 119.32 48.9551 118.734 49.3184C118.149 49.6615 117.634 49.7826 117.19 49.6816C116.746 49.5807 116.434 49.3688 116.252 49.0459C116.07 48.723 116.04 48.3496 116.161 47.9258C116.282 47.4818 116.615 47.1084 117.16 46.8057ZM122.428 43.748C122.892 43.8691 123.316 43.96 123.699 44.0205C124.103 44.0609 124.446 44.0911 124.729 44.1113C125.072 44.1315 125.384 44.1416 125.667 44.1416C125.95 44.1416 126.303 44.1214 126.727 44.0811C127.473 44.0205 128.533 43.8691 129.905 43.627C129.683 43.7884 129.471 43.9499 129.27 44.1113C129.088 44.2526 128.926 44.3939 128.785 44.5352L128.331 44.9893C128.069 45.3525 127.806 45.9681 127.544 46.8359C127.322 47.5827 127.08 48.6322 126.817 49.9844C126.575 51.3366 126.353 53.1328 126.151 55.373C127.14 54.4043 128.069 53.6777 128.937 53.1934C129.825 52.6888 130.602 52.3255 131.268 52.1035C132.055 51.8613 132.771 51.7301 133.417 51.71C134.244 51.7705 134.961 51.9421 135.566 52.2246C136.192 52.487 136.717 52.8099 137.141 53.1934C137.585 53.5566 137.938 53.9401 138.2 54.3438C138.483 54.7272 138.695 55.0703 138.836 55.373C138.917 55.5749 138.977 55.9482 139.018 56.4932C139.078 57.0179 139.088 57.6234 139.048 58.3096C139.007 58.9958 138.896 59.7223 138.715 60.4893C138.553 61.236 138.281 61.9323 137.897 62.5781C137.534 63.2038 137.05 63.7285 136.444 64.1523C135.859 64.5762 135.122 64.8083 134.234 64.8486C133.205 64.8486 132.206 64.7275 131.237 64.4854C130.41 64.2835 129.532 63.9303 128.604 63.4258C127.695 62.901 126.918 62.1543 126.272 61.1855C126.272 61.4277 126.272 61.6699 126.272 61.9121C126.272 62.1341 126.283 62.3258 126.303 62.4873C126.323 62.7093 126.343 62.901 126.363 63.0625C126.383 63.2441 126.434 63.4359 126.515 63.6377C126.575 63.7992 126.666 64.001 126.787 64.2432C126.928 64.4652 127.11 64.6872 127.332 64.9092C127.11 64.889 126.888 64.8789 126.666 64.8789C126.444 64.8587 126.222 64.8587 126 64.8789C125.758 64.8991 125.516 64.9193 125.273 64.9395C125.031 64.9596 124.779 64.9899 124.517 65.0303C124.295 65.0706 124.032 65.1211 123.729 65.1816C123.427 65.2422 123.114 65.3128 122.791 65.3936C122.852 65.2119 122.902 64.9495 122.942 64.6064C122.983 64.2432 123.023 63.8496 123.063 63.4258C123.124 62.9818 123.164 62.5176 123.185 62.0332C123.225 61.5488 123.265 61.0645 123.306 60.5801C123.386 59.4701 123.457 58.2591 123.518 56.9473C123.578 54.9089 123.588 53.0117 123.548 51.2559C123.528 50.5091 123.487 49.7523 123.427 48.9854C123.386 48.2184 123.326 47.502 123.245 46.8359C123.164 46.1497 123.053 45.5443 122.912 45.0195C122.791 44.4746 122.63 44.0508 122.428 43.748ZM126.363 58.4912C126.686 59.0765 127.029 59.5811 127.393 60.0049C127.756 60.4085 128.119 60.7516 128.482 61.0342C128.846 61.3167 129.199 61.5387 129.542 61.7002C129.905 61.8617 130.248 61.9827 130.571 62.0635C131.318 62.2653 132.055 62.2855 132.781 62.124C133.508 61.9222 134.073 61.5186 134.477 60.9131C134.88 60.3076 135.193 59.6214 135.415 58.8545C135.516 58.4912 135.576 58.027 135.597 57.4619C135.637 56.8968 135.576 56.3519 135.415 55.8271C135.274 55.2822 135.011 54.8079 134.628 54.4043C134.244 53.9805 133.689 53.7282 132.963 53.6475C132.458 53.6475 131.873 53.7887 131.207 54.0713C130.622 54.3135 129.925 54.7171 129.118 55.2822C128.311 55.8271 127.393 56.6445 126.363 57.7344V58.4912Z" fill="#fff"/>
  <defs>
    <linearGradient id="paint0_linear_73_32" x1="117.907" y1="27.798" x2="117.379" y2="32.1705" gradientUnits="userSpaceOnUse">
      <stop stop-color="#2F5BB1" stop-opacity="0.19"/>
      <stop offset="0.541667" stop-color="#3857C6" stop-opacity="0.78"/>
      <stop offset="0.84375" stop-color="#1F2EB4" stop-opacity="0.39"/>
    </linearGradient>
    <linearGradient id="paint1_linear_73_32" x1="117.168" y1="33.9191" x2="114.001" y2="60.1543" gradientUnits="userSpaceOnUse">
      <stop stop-color="#2F5BB1" stop-opacity="0.19"/>
      <stop offset="0.541667" stop-color="#3857C6" stop-opacity="0.78"/>
      <stop offset="0.84375" stop-color="#1F2EB4" stop-opacity="0.39"/>
    </linearGradient>
    <linearGradient id="paint2_linear_73_32" x1="113.473" y1="64.5275" x2="112.839" y2="69.7745" gradientUnits="userSpaceOnUse">
      <stop stop-color="#2F5BB1" stop-opacity="0.19"/>
      <stop offset="0.541667" stop-color="#3857C6" stop-opacity="0.78"/>
      <stop offset="0.84375" stop-color="#1F2EB4" stop-opacity="0.39"/>
    </linearGradient>
    <linearGradient id="paint3_linear_73_32" x1="113.79" y1="61.9035" x2="113.578" y2="63.6525" gradientUnits="userSpaceOnUse">
      <stop stop-color="#2F5BB1" stop-opacity="0.19"/>
      <stop offset="0.541667" stop-color="#3857C6" stop-opacity="0.78"/>
      <stop offset="0.84375" stop-color="#1F2EB4" stop-opacity="0.39"/>
    </linearGradient>
    <linearGradient id="paint4_linear_73_32" x1="101.109" y1="60.3724" x2="100.898" y2="62.1214" gradientUnits="userSpaceOnUse">
      <stop stop-color="#2F5BB1" stop-opacity="0.19"/>
      <stop offset="0.541667" stop-color="#3857C6" stop-opacity="0.78"/>
      <stop offset="0.84375" stop-color="#1F2EB4" stop-opacity="0.39"/>
    </linearGradient>
    <linearGradient id="paint5_linear_73_32" x1="105.966" y1="20.1458" x2="105.544" y2="23.6439" gradientUnits="userSpaceOnUse">
      <stop stop-color="#2F5BB1" stop-opacity="0.19"/>
      <stop offset="0.541667" stop-color="#3857C6" stop-opacity="0.78"/>
      <stop offset="0.84375" stop-color="#1F2EB4" stop-opacity="0.39"/>
    </linearGradient>
    <linearGradient id="paint6_linear_73_32" x1="104.91" y1="28.8909" x2="101.32" y2="58.6242" gradientUnits="userSpaceOnUse">
      <stop stop-color="#2F5BB1" stop-opacity="0.19"/>
      <stop offset="0.541667" stop-color="#3857C6" stop-opacity="0.78"/>
      <stop offset="0.84375" stop-color="#1F2EB4" stop-opacity="0.39"/>
    </linearGradient>
    <linearGradient id="paint7_linear_73_32" x1="100.792" y1="62.9964" x2="100.159" y2="68.2435" gradientUnits="userSpaceOnUse">
      <stop stop-color="#2F5BB1" stop-opacity="0.19"/>
      <stop offset="0.541667" stop-color="#3857C6" stop-opacity="0.78"/>
      <stop offset="0.84375" stop-color="#1F2EB4" stop-opacity="0.39"/>
    </linearGradient>
    <linearGradient id="paint8_linear_73_32" x1="105.438" y1="24.5179" x2="105.121" y2="27.1414" gradientUnits="userSpaceOnUse">
      <stop stop-color="#2F5BB1" stop-opacity="0.19"/>
      <stop offset="0.541667" stop-color="#3857C6" stop-opacity="0.78"/>
      <stop offset="0.84375" stop-color="#1F2EB4" stop-opacity="0.39"/>
    </linearGradient>
    <linearGradient id="paint9_linear_73_32" x1="90.3902" y1="31.5733" x2="89.7567" y2="36.8204" gradientUnits="userSpaceOnUse">
      <stop stop-color="#2F5BB1" stop-opacity="0.19"/>
      <stop offset="0.541667" stop-color="#3857C6" stop-opacity="0.78"/>
      <stop offset="0.84375" stop-color="#1F2EB4" stop-opacity="0.39"/>
    </linearGradient>
    <linearGradient id="paint10_linear_73_32" x1="81.6289" y1="52.6973" x2="80.7843" y2="59.6934" gradientUnits="userSpaceOnUse">
      <stop stop-color="#2F5BB1" stop-opacity="0.19"/>
      <stop offset="0.541667" stop-color="#3857C6" stop-opacity="0.78"/>
      <stop offset="0.84375" stop-color="#1F2EB4" stop-opacity="0.39"/>
    </linearGradient>
    <linearGradient id="paint11_linear_73_32" x1="87.0125" y1="33.8279" x2="84.373" y2="55.6907" gradientUnits="userSpaceOnUse">
      <stop stop-color="#2F5BB1" stop-opacity="0.19"/>
      <stop offset="0.541667" stop-color="#3857C6" stop-opacity="0.78"/>
      <stop offset="0.84375" stop-color="#1F2EB4" stop-opacity="0.39"/>
    </linearGradient>
    <linearGradient id="paint12_linear_73_32" x1="92.5464" y1="24.7364" x2="91.4906" y2="33.4814" gradientUnits="userSpaceOnUse">
      <stop stop-color="#2F5BB1" stop-opacity="0.19"/>
      <stop offset="0.541667" stop-color="#3857C6" stop-opacity="0.78"/>
      <stop offset="0.84375" stop-color="#1F2EB4" stop-opacity="0.39"/>
    </linearGradient>
    <linearGradient id="paint13_linear_73_32" x1="79.6839" y1="57.7862" x2="78.7336" y2="65.6567" gradientUnits="userSpaceOnUse">
      <stop stop-color="#2F5BB1" stop-opacity="0.19"/>
      <stop offset="0.541667" stop-color="#3857C6" stop-opacity="0.78"/>
      <stop offset="0.84375" stop-color="#1F2EB4" stop-opacity="0.39"/>
    </linearGradient>
    <linearGradient id="paint14_linear_73_32" x1="26.2363" y1="25.6808" x2="26.5773" y2="30.0719" gradientUnits="userSpaceOnUse">
      <stop stop-color="#17459F" stop-opacity="0.19"/>
      <stop offset="0.541667" stop-color="#496CEA" stop-opacity="0.78"/>
      <stop offset="0.84375" stop-color="#172285" stop-opacity="0.39"/>
    </linearGradient>
    <linearGradient id="paint15_linear_73_32" x1="26.7136" y1="31.8283" x2="28.7597" y2="58.1747" gradientUnits="userSpaceOnUse">
      <stop stop-color="#17459F" stop-opacity="0.19"/>
      <stop offset="0.541667" stop-color="#496CEA" stop-opacity="0.78"/>
      <stop offset="0.84375" stop-color="#172285" stop-opacity="0.39"/>
    </linearGradient>
    <linearGradient id="paint16_linear_73_32" x1="29.1008" y1="62.5656" x2="29.51" y2="67.8349" gradientUnits="userSpaceOnUse">
      <stop stop-color="#17459F" stop-opacity="0.19"/>
      <stop offset="0.541667" stop-color="#496CEA" stop-opacity="0.78"/>
      <stop offset="0.84375" stop-color="#172285" stop-opacity="0.39"/>
    </linearGradient>
    <linearGradient id="paint17_linear_73_32" x1="28.8962" y1="59.9308" x2="29.0326" y2="61.6873" gradientUnits="userSpaceOnUse">
      <stop stop-color="#17459F" stop-opacity="0.19"/>
      <stop offset="0.541667" stop-color="#496CEA" stop-opacity="0.78"/>
      <stop offset="0.84375" stop-color="#172285" stop-opacity="0.39"/>
    </linearGradient>
    <linearGradient id="paint18_linear_73_32" x1="41.6304" y1="58.9423" x2="41.7668" y2="60.6988" gradientUnits="userSpaceOnUse">
      <stop stop-color="#17459F" stop-opacity="0.19"/>
      <stop offset="0.541667" stop-color="#496CEA" stop-opacity="0.78"/>
      <stop offset="0.84375" stop-color="#172285" stop-opacity="0.39"/>
    </linearGradient>
    <linearGradient id="paint19_linear_73_32" x1="38.4929" y1="18.5439" x2="38.7657" y2="22.0568" gradientUnits="userSpaceOnUse">
      <stop stop-color="#17459F" stop-opacity="0.19"/>
      <stop offset="0.541667" stop-color="#496CEA" stop-opacity="0.78"/>
      <stop offset="0.84375" stop-color="#172285" stop-opacity="0.39"/>
    </linearGradient>
    <linearGradient id="paint20_linear_73_32" x1="39.175" y1="27.3261" x2="41.494" y2="57.1854" gradientUnits="userSpaceOnUse">
      <stop stop-color="#17459F" stop-opacity="0.19"/>
      <stop offset="0.541667" stop-color="#496CEA" stop-opacity="0.78"/>
      <stop offset="0.84375" stop-color="#172285" stop-opacity="0.39"/>
    </linearGradient>
    <linearGradient id="paint21_linear_73_32" x1="41.835" y1="61.5771" x2="42.2442" y2="66.8464" gradientUnits="userSpaceOnUse">
      <stop stop-color="#17459F" stop-opacity="0.19"/>
      <stop offset="0.541667" stop-color="#496CEA" stop-opacity="0.78"/>
      <stop offset="0.84375" stop-color="#172285" stop-opacity="0.39"/>
    </linearGradient>
    <linearGradient id="paint22_linear_73_32" x1="38.834" y1="22.9355" x2="39.0386" y2="25.5701" gradientUnits="userSpaceOnUse">
      <stop stop-color="#17459F" stop-opacity="0.19"/>
      <stop offset="0.541667" stop-color="#496CEA" stop-opacity="0.78"/>
      <stop offset="0.84375" stop-color="#172285" stop-opacity="0.39"/>
    </linearGradient>
    <linearGradient id="paint23_linear_73_32" x1="53.5675" y1="30.6262" x2="53.9767" y2="35.8955" gradientUnits="userSpaceOnUse">
      <stop stop-color="#17459F" stop-opacity="0.19"/>
      <stop offset="0.541667" stop-color="#496CEA" stop-opacity="0.78"/>
      <stop offset="0.84375" stop-color="#172285" stop-opacity="0.39"/>
    </linearGradient>
    <linearGradient id="paint24_linear_73_32" x1="61.42" y1="52.1038" x2="61.9656" y2="59.1295" gradientUnits="userSpaceOnUse">
      <stop stop-color="#17459F" stop-opacity="0.19"/>
      <stop offset="0.541667" stop-color="#496CEA" stop-opacity="0.78"/>
      <stop offset="0.84375" stop-color="#172285" stop-opacity="0.39"/>
    </linearGradient>
    <linearGradient id="paint25_linear_73_32" x1="56.8458" y1="33.0221" x2="58.5509" y2="54.9775" gradientUnits="userSpaceOnUse">
      <stop stop-color="#17459F" stop-opacity="0.19"/>
      <stop offset="0.541667" stop-color="#496CEA" stop-opacity="0.78"/>
      <stop offset="0.84375" stop-color="#172285" stop-opacity="0.39"/>
    </linearGradient>
    <linearGradient id="paint26_linear_73_32" x1="51.7046" y1="23.7025" x2="52.3866" y2="32.4846" gradientUnits="userSpaceOnUse">
      <stop stop-color="#17459F" stop-opacity="0.19"/>
      <stop offset="0.541667" stop-color="#496CEA" stop-opacity="0.78"/>
      <stop offset="0.84375" stop-color="#172285" stop-opacity="0.39"/>
    </linearGradient>
    <linearGradient id="paint27_linear_73_32" x1="63.1467" y1="57.2708" x2="63.7606" y2="65.1748" gradientUnits="userSpaceOnUse">
      <stop stop-color="#17459F" stop-opacity="0.19"/>
      <stop offset="0.541667" stop-color="#496CEA" stop-opacity="0.78"/>
      <stop offset="0.84375" stop-color="#172285" stop-opacity="0.39"/>
    </linearGradient>
    <linearGradient id="paint28_linear_73_32" x1="-3.5" y1="74.5" x2="164" y2="43.5" gradientUnits="userSpaceOnUse">
      <stop stop-color="#15295A"/>
      <stop offset="0.962074" stop-color="#372386"/>
    </linearGradient>
    <clipPath id="clip0_73_32">
      <rect width="63.4219" height="63.4219" fill="white" transform="matrix(-0.992791 -0.119861 -0.119861 0.992791 127 7.60156)"/>
    </clipPath>
    <clipPath id="clip1_73_32">
      <rect width="63.4219" height="63.4219" fill="white" transform="translate(18.0127 5.11523) rotate(-4.44088)"/>
    </clipPath>
  </defs>
</svg>
