<svg width="1600" height="777" viewBox="0 0 1600 777" fill="none" xmlns="http://www.w3.org/2000/svg">
  <path d="M370.591 0H1618.69V632L1559.11 568L1491.96 546.5L1375.83 492L1252.13 455L1142.07 398.5L1120.36 312.5L1036.04 242.5L902.244 209.5L782.079 172.5L678.071 96.5L511.858 72.0256C507.248 71.3468 502.788 69.8872 498.669 67.7095L370.591 0Z" fill="#00B2FF" fill-opacity="0.03"/>
  <path d="M360.998 -52.5L1036.04 75L1504.08 226L1618.18 364V750L1415.21 572L1348.06 550.5L1231.94 496L1108.24 459L998.173 402.5L976.463 316.5L892.146 246.5L758.349 213.5L638.185 176.5L534.177 100.5L398.36 19.5L353.511 2.21981C325.572 -8.54518 331.194 -49.6356 360.998 -52.5Z" fill="#00B2FF" fill-opacity="0.03"/>
  <path d="M191.178 -24L870.923 103.579L1342.22 254.674L1470.75 406.5L1582.33 579.376L1622.22 748.5L1252.74 600.889L1185.12 579.376L1068.19 524.842L943.626 487.819L832.793 431.284L810.931 345.23L726.026 275.186L591.298 242.166L470.296 205.143L365.563 129.095L228.801 48.0449L183.725 30.7866C155.701 20.0572 161.307 -21.1473 191.178 -24Z" fill="#00B2FF" fill-opacity="0.03"/>
  <path d="M121.37 777H297.852H207.24H121.37L33.9193 756.653L-12.4401 726.67V222.949L37.5695 299.702L75.9697 375.198L161.254 426.786L188.045 478.794L217.961 497.668L284.938 577.776L345.218 601.264L416.66 646.561L493.907 688.922L609.107 726.67L883.138 777H121.37Z" fill="#00B2FF" fill-opacity="0.03"/>
  <path d="M580.501 760.305H479.835L416.836 720.993L299.007 698.68L157.873 678.139L58.9532 630.326L24.6306 524.43L-16.6543 377.096V171.822L78.2025 269.784L120.47 333.534L214.344 377.096L243.833 421.013L276.763 436.951L350.486 504.597L416.836 524.43L495.474 562.68L580.501 598.451L701.898 678.139L814.398 738.984L864.173 760.305H692.068H580.501Z" fill="#00B2FF" fill-opacity="0.03"/>
  <path d="M502.678 671.615H414.776L359.765 629.159L256.876 605.062L133.636 582.878L47.2591 531.242L17.2884 416.877L-18.7618 257.761V104L64.0677 141.867L100.976 210.715L182.947 257.761L208.697 305.19L237.452 322.402L301.827 395.458L359.765 416.877L428.432 458.186L502.678 496.817L608.682 582.878L706.918 648.588L798.8 724.186C808.423 732.103 801.058 747.623 788.839 745.176L661.878 732.133L502.678 671.615Z" fill="#00B2FF" fill-opacity="0.03"/>
</svg>
