<svg width="1599" height="589" viewBox="0 0 1599 589" fill="none" xmlns="http://www.w3.org/2000/svg">
  <path d="M0 438.745L31 454.783L74.5 467.717L124 482.204L163.5 511.693L211 523.075L249 551.013L298.5 562.395L343.5 579.985L398 569.638L461.5 579.985L491 562.395L530.5 569.638L562.5 579.985L603.5 569.638L622 575.846L646.5 579.985L656.5 575.846L672 579.985H646.5H562.5H461.5H343.5H0V438.745Z" fill="#00B2FF" fill-opacity="0.03"/>
  <path d="M883.388 35.0594L837.938 2.0033H1665V186.817L1645.8 206.851L1625.31 235.9L1604.19 285.485L1590.1 322.047L1576.02 353.099L1604.19 422.718L1590.1 486.326L1576.02 524.891L1553.4 587.998L1431.35 589H756L798.249 577.981L837.938 552.438L860.983 524.891L896.191 502.854L951.883 486.326L987.091 511.869L1033.82 502.854L1077.99 486.326L1140.08 473.664L1183.61 486.326L1223.3 466.292L1211.78 422.718L1246.35 373.134L1298.2 353.099L1344.93 322.047L1367.97 272.463V235.9L1344.93 206.851L1298.2 186.817L1262.99 146.248L1246.35 124.712L1223.3 113.693H1183.61L1158.01 124.712H1120.24L1077.99 113.693L1013.98 102.674L997.333 72.1224L951.883 47.5807L883.388 35.0594Z" fill="#00B2FF" fill-opacity="0.03"/>
  <path d="M904.5 22.2311L873 0H1599V579.985H1060.5L1106 566.152L1141 550.837L1180 538.487L1225.5 550.837L1269 526.63L1320 514.28L1372.5 526.63L1437.5 538.487L1488.5 514.28L1516.5 490.072V431.283L1507.5 389.785L1488.5 358.662L1453.5 339.395L1437.5 309.753V266.773L1420 212.925L1358.5 186.741L1320 162.534L1292 123.012L1253.5 105.721L1211.5 78.0559L1169 93.3706L1127 78.0559L1080 60.765L1041.5 32.6056L1001 22.2311L966 32.6056H936L904.5 22.2311Z" fill="#00B2FF" fill-opacity="0.03"/>
  <path d="M1540.5 437.743L1600 397.174V579.985H1200.5L1226.5 555.944L1263.5 533.406L1294.5 521.886L1339.5 533.406L1393 521.886L1422 497.344L1471 479.815L1514.5 456.775L1540.5 437.743Z" fill="#00B2FF" fill-opacity="0.03"/>
  <path d="M898.991 548.573L915 570.319V579.985H640.85H496.271H369.202H205.112H0V344.153V170.662V2.0033H337.184L357.695 8.76896L388.212 22.3003L423.732 38.7312L451.247 57.5784L473.759 74.9759L496.271 100.589L507.777 127.651V163.413L496.271 213.672L486.266 251.85L464.754 299.693L444.243 320.956L406.222 352.852L369.202 371.215H315.672L282.654 364.933L261.143 344.153L270.148 320.956L282.654 299.693L289.158 283.745L308.168 274.08L326.178 251.85L337.184 227.203L315.672 201.591L289.158 186.609L270.148 176.944L238.13 163.413L194.606 134.9L155.585 120.402L123.568 111.704H94.5517H69.0377L38.521 127.651L14.0077 146.015L0 170.662V344.153L6.50355 371.215L25.5139 395.862L49.5271 426.307L76.5418 455.786L105.558 493.481L131.072 525.859L155.585 555.822L170.593 570.319L205.112 579.985H369.202L397.217 577.085L418.729 563.07L444.243 555.822L464.754 563.07L496.271 579.985H640.85L647.854 577.085L656.359 571.286L668.865 563.07L692.378 548.573L705.886 534.558L721.894 514.744L742.406 502.18L768.42 493.481L793.434 502.18L825.951 514.744L863.972 534.558L898.991 548.573Z" fill="#00B2FF" fill-opacity="0.03"/>
</svg>
