<?xml version="1.0" encoding="UTF-8"?>
<!DOCTYPE svg PUBLIC "-//W3C//DTD SVG 1.1//EN" "http://www.w3.org/Graphics/SVG/1.1/DTD/svg11.dtd">
<svg xmlns="http://www.w3.org/2000/svg" version="1.1" width="1000px" height="344px" style="shape-rendering:geometricPrecision; text-rendering:geometricPrecision; image-rendering:optimizeQuality; fill-rule:evenodd; clip-rule:evenodd" xmlns:xlink="http://www.w3.org/1999/xlink">
<g><path style="opacity:0.031" fill="#029fff" d="M 512.5,-0.5 C 518.833,-0.5 525.167,-0.5 531.5,-0.5C 545,0.814 558.667,1.98067 572.5,3C 552.122,8.51106 531.789,14.1777 511.5,20C 539.475,16.6471 567.475,13.1471 595.5,9.5C 612.877,10.6186 630.21,12.1186 647.5,14C 623.122,20.8446 598.788,27.8446 574.5,35C 555.617,43.6082 536.617,51.9416 517.5,60C 500.627,69.2696 483.627,78.2696 466.5,87C 429.149,96.2035 391.482,103.87 353.5,110C 341.167,117.5 328.833,125 316.5,132.5C 312.565,142.304 309.232,152.304 306.5,162.5C 289.421,168.361 272.421,174.527 255.5,181C 237.5,185 219.5,189 201.5,193C 174.715,203.151 147.382,211.484 119.5,218C 79.4815,229.837 39.4815,241.67 -0.5,253.5C -0.5,245.167 -0.5,236.833 -0.5,228.5C 14.3294,220.254 28.6627,211.254 42.5,201.5C 50.6965,198.426 59.1965,196.426 68,195.5C 88.2345,188.527 108.901,181.527 130,174.5C 130.333,174.833 130.667,175.167 131,175.5C 146.375,171.99 161.708,168.323 177,164.5C 177.333,164.833 177.667,165.167 178,165.5C 187.649,162.677 196.982,159.01 206,154.5C 207.333,154.5 208.667,154.5 210,154.5C 212.333,153.167 214.667,151.833 217,150.5C 217.333,150.833 217.667,151.167 218,151.5C 221.354,149.984 224.688,148.317 228,146.5C 228.333,146.833 228.667,147.167 229,147.5C 230.713,146.122 232.047,144.455 233,142.5C 235.665,134.511 238.331,126.511 241,118.5C 254.68,110.494 268.347,102.494 282,94.5C 282.414,94.9574 282.914,95.2907 283.5,95.5C 290.719,93.66 297.885,91.9933 305,90.5C 306.628,91.0966 308.295,90.7633 310,89.5C 310.414,89.9574 310.914,90.2907 311.5,90.5C 318.733,89.0353 325.9,87.3687 333,85.5C 333.333,85.8333 333.667,86.1667 334,86.5C 344.641,83.6732 355.307,81.0065 366,78.5C 366.333,78.8333 366.667,79.1667 367,79.5C 369.533,78.1276 372.2,77.1276 375,76.5C 375.333,76.8333 375.667,77.1667 376,77.5C 380.333,76.1667 384.667,74.8333 389,73.5C 389.333,73.8333 389.667,74.1667 390,74.5C 406.786,65.5243 423.619,56.6909 440.5,48C 458.688,40.0751 477.022,32.4084 495.5,25C 496.451,24.2825 496.617,23.4491 496,22.5C 494.915,23.2931 493.748,23.9598 492.5,24.5C 488.519,25.1569 484.686,25.1569 481,24.5C 480.333,25.1667 479.667,25.8333 479,26.5C 477.333,26.1667 475.667,25.8333 474,25.5C 473.333,26.1667 472.667,26.8333 472,27.5C 470.333,27.1667 468.667,26.8333 467,26.5C 463.393,27.5984 459.726,28.5984 456,29.5C 453.702,28.3729 451.535,28.7063 449.5,30.5C 445.519,31.1569 441.686,31.1569 438,30.5C 437.333,31.1667 436.667,31.8333 436,32.5C 434.333,32.1667 432.667,31.8333 431,31.5C 430.333,32.1667 429.667,32.8333 429,33.5C 427.333,33.1667 425.667,32.8333 424,32.5C 423.333,33.1667 422.667,33.8333 422,34.5C 419.34,33.2747 416.673,33.608 414,35.5C 412.883,35.3349 411.716,35.0016 410.5,34.5C 409.167,35.1667 407.833,35.8333 406.5,36.5C 403.7,36.5664 400.867,36.5664 398,36.5C 396.215,37.2401 394.382,37.9067 392.5,38.5C 391.033,38.277 389.533,37.9437 388,37.5C 387.333,38.1667 386.667,38.8333 386,39.5C 384.333,39.1667 382.667,38.8333 381,38.5C 380.333,39.1667 379.667,39.8333 379,40.5C 377.467,40.0563 375.967,39.723 374.5,39.5C 370.675,40.7688 366.842,41.7688 363,42.5C 362.5,42.3333 362,42.1667 361.5,42C 365.443,40.481 369.11,38.481 372.5,36C 378.054,33.8972 383.554,32.7305 389,32.5C 391.661,33.3458 394.661,33.0125 398,31.5C 398.414,31.9574 398.914,32.2907 399.5,32.5C 402.039,31.8847 404.539,31.2181 407,30.5C 410.667,30.5 414.333,30.5 418,30.5C 423.366,29.237 428.699,28.237 434,27.5C 436.913,27.9999 439.913,27.6666 443,26.5C 445.64,27.1162 448.306,26.7829 451,25.5C 451.414,25.9574 451.914,26.2907 452.5,26.5C 468.738,19.519 485.071,12.6857 501.5,6C 505.56,4.31086 509.227,2.14419 512.5,-0.5 Z"/></g>
<g><path style="opacity:0.067" fill="#00abff" d="M 510.5,-0.5 C 511.167,-0.5 511.833,-0.5 512.5,-0.5C 509.227,2.14419 505.56,4.31086 501.5,6C 485.071,12.6857 468.738,19.519 452.5,26.5C 451.914,26.2907 451.414,25.9574 451,25.5C 448.306,26.7829 445.64,27.1162 443,26.5C 439.913,27.6666 436.913,27.9999 434,27.5C 428.699,28.237 423.366,29.237 418,30.5C 414.333,30.5 410.667,30.5 407,30.5C 404.539,31.2181 402.039,31.8847 399.5,32.5C 398.914,32.2907 398.414,31.9574 398,31.5C 394.661,33.0125 391.661,33.3458 389,32.5C 383.554,32.7305 378.054,33.8972 372.5,36C 369.11,38.481 365.443,40.481 361.5,42C 362,42.1667 362.5,42.3333 363,42.5C 366.842,41.7688 370.675,40.7688 374.5,39.5C 375.967,39.723 377.467,40.0563 379,40.5C 379.667,39.8333 380.333,39.1667 381,38.5C 382.667,38.8333 384.333,39.1667 386,39.5C 386.667,38.8333 387.333,38.1667 388,37.5C 389.533,37.9437 391.033,38.277 392.5,38.5C 394.382,37.9067 396.215,37.2401 398,36.5C 400.867,36.5664 403.7,36.5664 406.5,36.5C 407.833,35.8333 409.167,35.1667 410.5,34.5C 411.716,35.0016 412.883,35.3349 414,35.5C 416.673,33.608 419.34,33.2747 422,34.5C 422.667,33.8333 423.333,33.1667 424,32.5C 425.667,32.8333 427.333,33.1667 429,33.5C 429.667,32.8333 430.333,32.1667 431,31.5C 432.667,31.8333 434.333,32.1667 436,32.5C 436.667,31.8333 437.333,31.1667 438,30.5C 441.686,31.1569 445.519,31.1569 449.5,30.5C 451.535,28.7063 453.702,28.3729 456,29.5C 459.726,28.5984 463.393,27.5984 467,26.5C 468.667,26.8333 470.333,27.1667 472,27.5C 472.667,26.8333 473.333,26.1667 474,25.5C 475.667,25.8333 477.333,26.1667 479,26.5C 479.667,25.8333 480.333,25.1667 481,24.5C 484.686,25.1569 488.519,25.1569 492.5,24.5C 493.748,23.9598 494.915,23.2931 496,22.5C 496.617,23.4491 496.451,24.2825 495.5,25C 477.022,32.4084 458.688,40.0751 440.5,48C 423.619,56.6909 406.786,65.5243 390,74.5C 389.667,74.1667 389.333,73.8333 389,73.5C 384.667,74.8333 380.333,76.1667 376,77.5C 375.667,77.1667 375.333,76.8333 375,76.5C 372.2,77.1276 369.533,78.1276 367,79.5C 366.667,79.1667 366.333,78.8333 366,78.5C 355.307,81.0065 344.641,83.6732 334,86.5C 333.667,86.1667 333.333,85.8333 333,85.5C 325.9,87.3687 318.733,89.0353 311.5,90.5C 310.914,90.2907 310.414,89.9574 310,89.5C 308.295,90.7633 306.628,91.0966 305,90.5C 297.885,91.9933 290.719,93.66 283.5,95.5C 282.914,95.2907 282.414,94.9574 282,94.5C 268.347,102.494 254.68,110.494 241,118.5C 238.331,126.511 235.665,134.511 233,142.5C 232.047,144.455 230.713,146.122 229,147.5C 228.667,147.167 228.333,146.833 228,146.5C 224.688,148.317 221.354,149.984 218,151.5C 217.667,151.167 217.333,150.833 217,150.5C 214.667,151.833 212.333,153.167 210,154.5C 208.667,154.5 207.333,154.5 206,154.5C 196.982,159.01 187.649,162.677 178,165.5C 177.667,165.167 177.333,164.833 177,164.5C 161.708,168.323 146.375,171.99 131,175.5C 130.667,175.167 130.333,174.833 130,174.5C 108.901,181.527 88.2345,188.527 68,195.5C 59.1965,196.426 50.6965,198.426 42.5,201.5C 28.6627,211.254 14.3294,220.254 -0.5,228.5C -0.5,183.5 -0.5,138.5 -0.5,93.5C 0.800722,92.0378 2.30072,90.7044 4,89.5C 6.72758,89.2358 9.06091,88.2358 11,86.5C 12,86.8333 13,87.1667 14,87.5C 17.284,86.0855 20.6174,84.7522 24,83.5C 25,83.8333 26,84.1667 27,84.5C 30.284,83.0855 33.6174,81.7522 37,80.5C 39.3333,80.5 41.6667,80.5 44,80.5C 46.0876,79.6919 48.0876,78.6919 50,77.5C 51.7141,78.9255 53.0475,78.5922 54,76.5C 55,76.8333 56,77.1667 57,77.5C 60.4739,76.3518 63.8072,75.0185 67,73.5C 68,73.8333 69,74.1667 70,74.5C 73.4739,73.3518 76.8072,72.0185 80,70.5C 81,70.8333 82,71.1667 83,71.5C 86.4739,70.3518 89.8072,69.0185 93,67.5C 94,67.8333 95,68.1667 96,68.5C 99.4739,67.3518 102.807,66.0185 106,64.5C 107,64.8333 108,65.1667 109,65.5C 112.474,64.3518 115.807,63.0185 119,61.5C 120,61.8333 121,62.1667 122,62.5C 125.333,61.1667 128.667,59.8333 132,58.5C 133,58.8333 134,59.1667 135,59.5C 138.176,58.6444 141.51,57.311 145,55.5C 146,55.8333 147,56.1667 148,56.5C 151.176,55.6444 154.51,54.311 158,52.5C 159,52.8333 160,53.1667 161,53.5C 164.176,52.6444 167.51,51.311 171,49.5C 171.561,50.0219 172.228,50.3552 173,50.5C 176.67,49.9951 180.337,48.6618 184,46.5C 186.449,46.9369 188.783,46.9369 191,46.5C 193.088,45.6919 195.088,44.6919 197,43.5C 199.449,43.9369 201.783,43.9369 204,43.5C 206.088,42.6919 208.088,41.6919 210,40.5C 210.561,41.0219 211.228,41.3552 212,41.5C 216.095,40.3141 220.095,39.3141 224,38.5C 225.881,39.3544 227.714,39.0211 229.5,37.5C 230.967,37.723 232.467,38.0563 234,38.5C 234.667,37.8333 235.333,37.1667 236,36.5C 240.333,36.5 244.667,36.5 249,36.5C 249.667,35.8333 250.333,35.1667 251,34.5C 252.667,34.8333 254.333,35.1667 256,35.5C 259.473,34.2065 262.973,33.2065 266.5,32.5C 267.967,32.723 269.467,33.0563 271,33.5C 271.667,32.8333 272.333,32.1667 273,31.5C 277.333,31.5 281.667,31.5 286,31.5C 286.667,30.8333 287.333,30.1667 288,29.5C 289.533,29.9437 291.033,30.277 292.5,30.5C 296.175,30.0029 299.675,29.0029 303,27.5C 304.667,27.8333 306.333,28.1667 308,28.5C 311.473,27.2065 314.973,26.2065 318.5,25.5C 319.967,25.723 321.467,26.0563 323,26.5C 323.667,25.8333 324.333,25.1667 325,24.5C 329.333,24.5 333.667,24.5 338,24.5C 338.667,23.8333 339.333,23.1667 340,22.5C 341.667,22.8333 343.333,23.1667 345,23.5C 348.473,22.2065 351.973,21.2065 355.5,20.5C 356.967,20.723 358.467,21.0563 360,21.5C 360.667,20.8333 361.333,20.1667 362,19.5C 366.333,19.5 370.667,19.5 375,19.5C 375.667,18.8333 376.333,18.1667 377,17.5C 378.533,17.9437 380.033,18.277 381.5,18.5C 385.175,18.0029 388.675,17.0029 392,15.5C 393.667,15.8333 395.333,16.1667 397,16.5C 400.473,15.2065 403.973,14.2065 407.5,13.5C 408.967,13.723 410.467,14.0563 412,14.5C 412.667,13.8333 413.333,13.1667 414,12.5C 418.333,12.5 422.667,12.5 427,12.5C 427.667,11.8333 428.333,11.1667 429,10.5C 430.533,10.9437 432.033,11.277 433.5,11.5C 437.191,10.0358 440.858,9.03585 444.5,8.5C 445.967,8.723 447.467,9.05634 449,9.5C 449.667,8.83333 450.333,8.16667 451,7.5C 455.333,7.5 459.667,7.5 464,7.5C 464.667,6.83333 465.333,6.16667 466,5.5C 470.848,6.35433 475.848,5.68766 481,3.5C 482.667,3.83333 484.333,4.16667 486,4.5C 489.154,2.88142 492.321,2.04809 495.5,2C 330.167,1.5 164.834,1.33333 -0.5,1.5C -0.5,1.16667 -0.5,0.833333 -0.5,0.5C 170.001,0.833006 340.334,0.499672 510.5,-0.5 Z"/></g>
<g><path style="opacity:0.031" fill="#019fff" d="M 996.5,-0.5 C 997.5,-0.5 998.5,-0.5 999.5,-0.5C 999.5,25.8333 999.5,52.1667 999.5,78.5C 998.669,63.6723 998.169,48.6723 998,33.5C 978.882,48.9397 959.716,64.4397 940.5,80C 936.306,84.1937 932.14,88.3604 928,92.5C 921.305,100.574 914.805,108.741 908.5,117C 888.615,123.692 868.282,131.025 847.5,139C 840.648,146.351 833.981,153.851 827.5,161.5C 819.883,164.302 812.216,167.135 804.5,170C 788.763,181.62 772.929,193.12 757,204.5C 744.461,206.951 732.128,209.951 720,213.5C 719.667,213.167 719.333,212.833 719,212.5C 697.562,220.437 676.896,228.437 657,236.5C 640.246,240.863 623.913,246.196 608,252.5C 607.667,252.167 607.333,251.833 607,251.5C 579.119,265.857 551.286,280.357 523.5,295C 503.275,302.527 483.442,311.027 464,320.5C 463.617,319.944 463.117,319.611 462.5,319.5C 463.117,317.771 464.117,316.271 465.5,315C 484.167,303 502.833,291 521.5,279C 543.833,267.333 566.167,255.667 588.5,244C 611.669,229.583 634.669,214.916 657.5,200C 689.535,187.984 720.868,174.317 751.5,159C 764.167,155.333 776.833,151.667 789.5,148C 802.833,136 816.167,124 829.5,112C 836.379,108.394 843.379,105.061 850.5,102C 855.972,93.6955 861.638,85.5288 867.5,77.5C 885.167,69.5 902.833,61.5 920.5,53.5C 928.71,41.579 937.044,29.7457 945.5,18C 962.789,12.2956 979.789,6.12889 996.5,-0.5 Z"/></g>
<g><path style="opacity:0.031" fill="#009eff" d="M -0.5,1.5 C 164.834,1.33333 330.167,1.5 495.5,2C 492.321,2.04809 489.154,2.88142 486,4.5C 484.333,4.16667 482.667,3.83333 481,3.5C 475.848,5.68766 470.848,6.35433 466,5.5C 465.333,6.16667 464.667,6.83333 464,7.5C 459.667,7.5 455.333,7.5 451,7.5C 450.333,8.16667 449.667,8.83333 449,9.5C 447.467,9.05634 445.967,8.723 444.5,8.5C 440.858,9.03585 437.191,10.0358 433.5,11.5C 432.033,11.277 430.533,10.9437 429,10.5C 428.333,11.1667 427.667,11.8333 427,12.5C 422.667,12.5 418.333,12.5 414,12.5C 413.333,13.1667 412.667,13.8333 412,14.5C 410.467,14.0563 408.967,13.723 407.5,13.5C 403.973,14.2065 400.473,15.2065 397,16.5C 395.333,16.1667 393.667,15.8333 392,15.5C 388.675,17.0029 385.175,18.0029 381.5,18.5C 380.033,18.277 378.533,17.9437 377,17.5C 376.333,18.1667 375.667,18.8333 375,19.5C 370.667,19.5 366.333,19.5 362,19.5C 361.333,20.1667 360.667,20.8333 360,21.5C 358.467,21.0563 356.967,20.723 355.5,20.5C 351.973,21.2065 348.473,22.2065 345,23.5C 343.333,23.1667 341.667,22.8333 340,22.5C 339.333,23.1667 338.667,23.8333 338,24.5C 333.667,24.5 329.333,24.5 325,24.5C 324.333,25.1667 323.667,25.8333 323,26.5C 321.467,26.0563 319.967,25.723 318.5,25.5C 314.973,26.2065 311.473,27.2065 308,28.5C 306.333,28.1667 304.667,27.8333 303,27.5C 299.675,29.0029 296.175,30.0029 292.5,30.5C 291.033,30.277 289.533,29.9437 288,29.5C 287.333,30.1667 286.667,30.8333 286,31.5C 281.667,31.5 277.333,31.5 273,31.5C 272.333,32.1667 271.667,32.8333 271,33.5C 269.467,33.0563 267.967,32.723 266.5,32.5C 262.973,33.2065 259.473,34.2065 256,35.5C 254.333,35.1667 252.667,34.8333 251,34.5C 250.333,35.1667 249.667,35.8333 249,36.5C 244.667,36.5 240.333,36.5 236,36.5C 235.333,37.1667 234.667,37.8333 234,38.5C 232.467,38.0563 230.967,37.723 229.5,37.5C 227.714,39.0211 225.881,39.3544 224,38.5C 220.095,39.3141 216.095,40.3141 212,41.5C 211.228,41.3552 210.561,41.0219 210,40.5C 208.088,41.6919 206.088,42.6919 204,43.5C 201.783,43.9369 199.449,43.9369 197,43.5C 195.088,44.6919 193.088,45.6919 191,46.5C 188.783,46.9369 186.449,46.9369 184,46.5C 180.337,48.6618 176.67,49.9951 173,50.5C 172.228,50.3552 171.561,50.0219 171,49.5C 167.51,51.311 164.176,52.6444 161,53.5C 160,53.1667 159,52.8333 158,52.5C 154.51,54.311 151.176,55.6444 148,56.5C 147,56.1667 146,55.8333 145,55.5C 141.51,57.311 138.176,58.6444 135,59.5C 134,59.1667 133,58.8333 132,58.5C 128.667,59.8333 125.333,61.1667 122,62.5C 121,62.1667 120,61.8333 119,61.5C 115.807,63.0185 112.474,64.3518 109,65.5C 108,65.1667 107,64.8333 106,64.5C 102.807,66.0185 99.4739,67.3518 96,68.5C 95,68.1667 94,67.8333 93,67.5C 89.8072,69.0185 86.4739,70.3518 83,71.5C 82,71.1667 81,70.8333 80,70.5C 76.8072,72.0185 73.4739,73.3518 70,74.5C 69,74.1667 68,73.8333 67,73.5C 63.8072,75.0185 60.4739,76.3518 57,77.5C 56,77.1667 55,76.8333 54,76.5C 53.0475,78.5922 51.7141,78.9255 50,77.5C 48.0876,78.6919 46.0876,79.6919 44,80.5C 41.6667,80.5 39.3333,80.5 37,80.5C 33.6174,81.7522 30.284,83.0855 27,84.5C 26,84.1667 25,83.8333 24,83.5C 20.6174,84.7522 17.284,86.0855 14,87.5C 13,87.1667 12,86.8333 11,86.5C 9.06091,88.2358 6.72758,89.2358 4,89.5C 2.30072,90.7044 0.800722,92.0378 -0.5,93.5C -0.5,62.8333 -0.5,32.1667 -0.5,1.5 Z"/></g>
<g><path style="opacity:0.066" fill="#00abff" d="M 999.5,78.5 C 999.5,79.5 999.5,80.5 999.5,81.5C 998.668,100.996 998.168,120.662 998,140.5C 997.333,142.5 996.667,144.5 996,146.5C 995.833,204.001 995.333,261.335 994.5,318.5C 994.667,262.832 994.5,207.166 994,151.5C 992.535,155.468 990.702,159.634 988.5,164C 989.089,165.873 988.422,167.54 986.5,169C 986.957,169.414 987.291,169.914 987.5,170.5C 985.908,173.678 984.241,176.844 982.5,180C 982.306,181.43 982.306,182.93 982.5,184.5C 980.611,187.59 978.945,190.757 977.5,194C 977.112,195.525 977.112,197.192 977.5,199C 975.578,200.46 974.911,202.127 975.5,204C 973.699,204.317 973.366,204.984 974.5,206C 973.833,206.667 973.167,207.333 972.5,208C 972.888,209.808 972.888,211.475 972.5,213C 971.833,213.333 971.167,213.667 970.5,214C 970.165,215.164 970.165,216.497 970.5,218C 968.355,221.176 966.355,224.509 964.5,228C 964.957,228.414 965.291,228.914 965.5,229.5C 964.5,230.833 963.5,232.167 962.5,233.5C 962.709,234.086 963.043,234.586 963.5,235C 962.167,236.667 960.833,238.333 959.5,240C 959.833,240.333 960.167,240.667 960.5,241C 958.437,242.572 957.771,244.405 958.5,246.5C 957.872,248.258 956.872,249.758 955.5,251C 955.833,251.333 956.167,251.667 956.5,252C 953.884,253.709 952.884,255.876 953.5,258.5C 952.872,260.258 951.872,261.758 950.5,263C 950.833,263.333 951.167,263.667 951.5,264C 949.787,265.378 948.453,267.045 947.5,269C 944.992,269.654 942.826,270.821 941,272.5C 940.667,272.167 940.333,271.833 940,271.5C 937.443,272.542 935.11,273.875 933,275.5C 931.127,274.911 929.46,275.578 928,277.5C 926.605,276.185 925.605,276.519 925,278.5C 924.586,278.043 924.086,277.709 923.5,277.5C 921.491,279.795 919.325,281.128 917,281.5C 914.909,280.5 913.243,281.167 912,283.5C 911.667,283.167 911.333,282.833 911,282.5C 908.577,283.712 906.244,285.046 904,286.5C 903.586,286.043 903.086,285.709 902.5,285.5C 900.505,287.11 898.339,288.443 896,289.5C 895.586,289.043 895.086,288.709 894.5,288.5C 889.868,290.988 885.035,292.988 880,294.5C 876.909,293.066 873.743,293.4 870.5,295.5C 868.047,294.158 865.547,294.492 863,296.5C 861.256,295.964 859.423,295.63 857.5,295.5C 856.252,296.04 855.085,296.707 854,297.5C 851.974,296.981 849.974,296.647 848,296.5C 847,297.167 846,297.833 845,298.5C 843.026,298.353 841.026,298.019 839,297.5C 838,298.167 837,298.833 836,299.5C 833.824,299.572 831.824,299.238 830,298.5C 827.453,300.508 824.953,300.842 822.5,299.5C 821.252,300.04 820.085,300.707 819,301.5C 814.322,301.178 809.322,301.178 804,301.5C 803,302.167 802,302.833 801,303.5C 799.026,303.353 797.026,303.019 795,302.5C 793.561,304.014 792.061,304.347 790.5,303.5C 788.5,304.167 786.5,304.833 784.5,305.5C 780.932,305.284 777.432,305.284 774,305.5C 773.333,306.167 772.667,306.833 772,307.5C 770.333,307.167 768.667,306.833 767,306.5C 766.311,307.357 765.478,308.023 764.5,308.5C 761.065,308.217 757.732,308.217 754.5,308.5C 753.522,308.977 752.689,309.643 752,310.5C 748,310.5 744,310.5 740,310.5C 737.275,311.872 734.609,312.872 732,313.5C 728,313.5 724,313.5 720,313.5C 718.921,315.394 717.587,315.727 716,314.5C 714.601,315.227 713.101,315.727 711.5,316C 704.763,320.689 697.43,324.189 689.5,326.5C 688.808,327.025 688.308,327.692 688,328.5C 686.984,327.366 686.317,327.699 686,329.5C 685.667,329.167 685.333,328.833 685,328.5C 681.055,331.254 677.388,333.587 674,335.5C 609.237,334.669 544.404,334.169 479.5,334C 502.139,330.779 523.972,327.279 545,323.5C 547.342,324.178 549.676,323.845 552,322.5C 554.342,323.178 556.676,322.845 559,321.5C 561.342,322.178 563.676,321.845 566,320.5C 568.342,321.178 570.676,320.845 573,319.5C 575.342,320.178 577.676,319.845 580,318.5C 582.734,318.633 585.401,318.633 588,318.5C 601.809,314.994 615.809,310.994 630,306.5C 638.492,305.622 647.492,303.289 657,299.5C 658.667,299.5 660.333,299.5 662,299.5C 668.455,296.593 674.955,293.759 681.5,291C 672.129,290.558 662.963,290.391 654,290.5C 652.676,291.88 651.343,292.214 650,291.5C 649.683,293.301 649.016,293.634 648,292.5C 643.393,293.963 638.726,295.63 634,297.5C 632.984,296.366 632.317,296.699 632,298.5C 629.184,297.87 626.518,298.536 624,300.5C 622.984,299.366 622.317,299.699 622,301.5C 620.657,300.786 619.324,301.12 618,302.5C 616.333,302.5 614.667,302.5 613,302.5C 610.783,304.015 607.95,305.349 604.5,306.5C 601.893,305.966 599.393,306.633 597,308.5C 595.984,307.366 595.317,307.699 595,309.5C 592.184,308.87 589.518,309.536 587,311.5C 585.984,310.366 585.317,310.699 585,312.5C 583.657,311.786 582.324,312.12 581,313.5C 579.333,313.5 577.667,313.5 576,313.5C 573.783,315.015 570.95,316.349 567.5,317.5C 566.914,317.291 566.414,316.957 566,316.5C 561.213,317.486 556.88,319.152 553,321.5C 547.411,322.325 542.077,322.325 537,321.5C 535.559,322.26 534.059,322.926 532.5,323.5C 529.357,323.641 526.524,323.308 524,322.5C 522.559,323.26 521.059,323.926 519.5,324.5C 516.986,324.073 514.486,323.739 512,323.5C 510.237,323.975 508.57,324.642 507,325.5C 504.129,325.05 501.296,324.717 498.5,324.5C 496.941,325.074 495.441,325.74 494,326.5C 491.129,326.05 488.296,325.717 485.5,325.5C 484.167,326.167 482.833,326.833 481.5,327.5C 476.589,327.322 471.422,327.322 466,327.5C 465.01,324.022 463.177,322.022 460.5,321.5C 461.167,320.833 461.833,320.167 462.5,319.5C 463.117,319.611 463.617,319.944 464,320.5C 483.442,311.027 503.275,302.527 523.5,295C 551.286,280.357 579.119,265.857 607,251.5C 607.333,251.833 607.667,252.167 608,252.5C 623.913,246.196 640.246,240.863 657,236.5C 676.896,228.437 697.562,220.437 719,212.5C 719.333,212.833 719.667,213.167 720,213.5C 732.128,209.951 744.461,206.951 757,204.5C 772.929,193.12 788.763,181.62 804.5,170C 812.216,167.135 819.883,164.302 827.5,161.5C 833.981,153.851 840.648,146.351 847.5,139C 868.282,131.025 888.615,123.692 908.5,117C 914.805,108.741 921.305,100.574 928,92.5C 932.14,88.3604 936.306,84.1937 940.5,80C 959.716,64.4397 978.882,48.9397 998,33.5C 998.169,48.6723 998.669,63.6723 999.5,78.5 Z"/></g>
<g><path style="opacity:0.031" fill="#009fff" d="M 994.5,318.5 C 984.687,323.907 974.687,329.074 964.5,334C 947.972,336.873 931.639,340.04 915.5,343.5C 747.5,343.5 579.5,343.5 411.5,343.5C 427.643,340.692 443.976,338.192 460.5,336C 447.167,335.667 433.833,335.333 420.5,335C 433.894,330.591 447.227,326.091 460.5,321.5C 463.177,322.022 465.01,324.022 466,327.5C 471.422,327.322 476.589,327.322 481.5,327.5C 482.833,326.833 484.167,326.167 485.5,325.5C 488.296,325.717 491.129,326.05 494,326.5C 495.441,325.74 496.941,325.074 498.5,324.5C 501.296,324.717 504.129,325.05 507,325.5C 508.57,324.642 510.237,323.975 512,323.5C 514.486,323.739 516.986,324.073 519.5,324.5C 521.059,323.926 522.559,323.26 524,322.5C 526.524,323.308 529.357,323.641 532.5,323.5C 534.059,322.926 535.559,322.26 537,321.5C 542.077,322.325 547.411,322.325 553,321.5C 556.88,319.152 561.213,317.486 566,316.5C 566.414,316.957 566.914,317.291 567.5,317.5C 570.95,316.349 573.783,315.015 576,313.5C 577.667,313.5 579.333,313.5 581,313.5C 582.324,312.12 583.657,311.786 585,312.5C 585.317,310.699 585.984,310.366 587,311.5C 589.518,309.536 592.184,308.87 595,309.5C 595.317,307.699 595.984,307.366 597,308.5C 599.393,306.633 601.893,305.966 604.5,306.5C 607.95,305.349 610.783,304.015 613,302.5C 614.667,302.5 616.333,302.5 618,302.5C 619.324,301.12 620.657,300.786 622,301.5C 622.317,299.699 622.984,299.366 624,300.5C 626.518,298.536 629.184,297.87 632,298.5C 632.317,296.699 632.984,296.366 634,297.5C 638.726,295.63 643.393,293.963 648,292.5C 649.016,293.634 649.683,293.301 650,291.5C 651.343,292.214 652.676,291.88 654,290.5C 662.963,290.391 672.129,290.558 681.5,291C 674.955,293.759 668.455,296.593 662,299.5C 660.333,299.5 658.667,299.5 657,299.5C 647.492,303.289 638.492,305.622 630,306.5C 615.809,310.994 601.809,314.994 588,318.5C 585.401,318.633 582.734,318.633 580,318.5C 577.676,319.845 575.342,320.178 573,319.5C 570.676,320.845 568.342,321.178 566,320.5C 563.676,321.845 561.342,322.178 559,321.5C 556.676,322.845 554.342,323.178 552,322.5C 549.676,323.845 547.342,324.178 545,323.5C 523.972,327.279 502.139,330.779 479.5,334C 544.404,334.169 609.237,334.669 674,335.5C 677.388,333.587 681.055,331.254 685,328.5C 685.333,328.833 685.667,329.167 686,329.5C 686.317,327.699 686.984,327.366 688,328.5C 688.308,327.692 688.808,327.025 689.5,326.5C 697.43,324.189 704.763,320.689 711.5,316C 713.101,315.727 714.601,315.227 716,314.5C 717.587,315.727 718.921,315.394 720,313.5C 724,313.5 728,313.5 732,313.5C 734.609,312.872 737.275,311.872 740,310.5C 744,310.5 748,310.5 752,310.5C 752.689,309.643 753.522,308.977 754.5,308.5C 757.732,308.217 761.065,308.217 764.5,308.5C 765.478,308.023 766.311,307.357 767,306.5C 768.667,306.833 770.333,307.167 772,307.5C 772.667,306.833 773.333,306.167 774,305.5C 777.432,305.284 780.932,305.284 784.5,305.5C 786.5,304.833 788.5,304.167 790.5,303.5C 792.061,304.347 793.561,304.014 795,302.5C 797.026,303.019 799.026,303.353 801,303.5C 802,302.833 803,302.167 804,301.5C 809.322,301.178 814.322,301.178 819,301.5C 820.085,300.707 821.252,300.04 822.5,299.5C 824.953,300.842 827.453,300.508 830,298.5C 831.824,299.238 833.824,299.572 836,299.5C 837,298.833 838,298.167 839,297.5C 841.026,298.019 843.026,298.353 845,298.5C 846,297.833 847,297.167 848,296.5C 849.974,296.647 851.974,296.981 854,297.5C 855.085,296.707 856.252,296.04 857.5,295.5C 859.423,295.63 861.256,295.964 863,296.5C 865.547,294.492 868.047,294.158 870.5,295.5C 873.743,293.4 876.909,293.066 880,294.5C 885.035,292.988 889.868,290.988 894.5,288.5C 895.086,288.709 895.586,289.043 896,289.5C 898.339,288.443 900.505,287.11 902.5,285.5C 903.086,285.709 903.586,286.043 904,286.5C 906.244,285.046 908.577,283.712 911,282.5C 911.333,282.833 911.667,283.167 912,283.5C 913.243,281.167 914.909,280.5 917,281.5C 919.325,281.128 921.491,279.795 923.5,277.5C 924.086,277.709 924.586,278.043 925,278.5C 925.605,276.519 926.605,276.185 928,277.5C 929.46,275.578 931.127,274.911 933,275.5C 935.11,273.875 937.443,272.542 940,271.5C 940.333,271.833 940.667,272.167 941,272.5C 942.826,270.821 944.992,269.654 947.5,269C 948.453,267.045 949.787,265.378 951.5,264C 951.167,263.667 950.833,263.333 950.5,263C 951.872,261.758 952.872,260.258 953.5,258.5C 952.884,255.876 953.884,253.709 956.5,252C 956.167,251.667 955.833,251.333 955.5,251C 956.872,249.758 957.872,248.258 958.5,246.5C 957.771,244.405 958.437,242.572 960.5,241C 960.167,240.667 959.833,240.333 959.5,240C 960.833,238.333 962.167,236.667 963.5,235C 963.043,234.586 962.709,234.086 962.5,233.5C 963.5,232.167 964.5,230.833 965.5,229.5C 965.291,228.914 964.957,228.414 964.5,228C 966.355,224.509 968.355,221.176 970.5,218C 970.165,216.497 970.165,215.164 970.5,214C 971.167,213.667 971.833,213.333 972.5,213C 972.888,211.475 972.888,209.808 972.5,208C 973.167,207.333 973.833,206.667 974.5,206C 973.366,204.984 973.699,204.317 975.5,204C 974.911,202.127 975.578,200.46 977.5,199C 977.112,197.192 977.112,195.525 977.5,194C 978.945,190.757 980.611,187.59 982.5,184.5C 982.306,182.93 982.306,181.43 982.5,180C 984.241,176.844 985.908,173.678 987.5,170.5C 987.291,169.914 986.957,169.414 986.5,169C 988.422,167.54 989.089,165.873 988.5,164C 990.702,159.634 992.535,155.468 994,151.5C 994.5,207.166 994.667,262.832 994.5,318.5 Z"/></g>
</svg>
