<svg width="1600" height="1416" viewBox="0 0 1600 1416" fill="none" xmlns="http://www.w3.org/2000/svg">
  <path d="M1628.72 32.6499L1683.72 0H1696V295.858L1663.43 324.49L1610.56 355.13L1549.68 376.227L1496.82 421.937L1414.05 445.043L1364.92 456.094L1302.44 500.297L1241.56 509.84L1184.42 538.472L1034.37 584.182L991.647 593.725L910.479 664.048L829.31 721.311L770.569 778.574L719.839 788.118L630.66 826.293L582.065 851.408L535.607 897.118L490.751 921.731L470.458 954.381L490.751 994.565L516.917 1034.25L582.065 1083.98L647.214 1120.14L697.945 1139.23L754.549 1171.88L795.133 1202.52L859.748 1244.21L910.479 1276.86L969.753 1291.93L1011.94 1307.5L1081.36 1317.05L1164.13 1343.67L1241.56 1358.74L1302.44 1374.31L1377.2 1389.38L1438.08 1416H1200.98L564.5 1404.43L460 1374.31L353.5 1343.67L275.5 1291.93L169 1244.21L79.0327 1202.52L30.5 1158.94L-2 1103.96L-47.5 1014.25L-13 836.771L40.5844 778.574L107.335 734.873L143.647 687.154L198.65 644.961L249.38 624.366L289.965 568.61L383.416 509.84L470.458 456.094L535.607 406.868L647.214 355.13L697.945 324.49L770.569 312.936L829.31 269.236L892.322 235.079L940.917 207.955L1034.37 198.411L1099.52 183.342L1219.13 149.185L1328.6 128.088L1401.76 116.535L1496.82 80.3689L1561.96 53.7467L1628.72 32.6499Z" fill="#00B2FF" fill-opacity="0.03"/>
  <path d="M2041.22 32.6499L2096.22 0H2108.5V295.858L2075.93 324.49L2023.06 355.13L1962.18 376.227L1909.32 421.937L1826.55 445.043L1777.42 456.094L1714.94 500.297L1654.06 509.84L1596.92 538.472L1446.87 584.182L1404.15 593.725L1322.98 664.048L1241.81 721.311L1183.07 778.574L1132.34 788.118L1043.16 826.293L994.565 851.408L948.107 897.118L903.251 921.731L882.958 954.381L903.251 994.565L929.417 1034.25L994.565 1083.98L1059.71 1120.14L1110.44 1139.23L1167.05 1171.88L1207.63 1202.52L1272.25 1244.21L1322.98 1276.86L1382.25 1291.93L1424.44 1307.5L1493.86 1317.05L1576.63 1343.67L1654.06 1358.74L1714.94 1374.31L1789.7 1389.38L1850.58 1416H1613.48L977 1404.43L872.5 1374.31L766 1343.67L688 1291.93L581.5 1244.21L491.533 1202.52L443 1158.94L410.5 1103.96L365 1014.25L399.5 836.771L453.084 778.574L519.835 734.873L556.147 687.154L611.15 644.961L661.88 624.366L702.465 568.61L795.916 509.84L882.958 456.094L948.107 406.868L1059.71 355.13L1110.44 324.49L1183.07 312.936L1241.81 269.236L1304.82 235.079L1353.42 207.955L1446.87 198.411L1512.02 183.342L1631.63 149.185L1741.1 128.088L1814.26 116.535L1909.32 80.3689L1974.46 53.7467L2041.22 32.6499Z" fill="#00B2FF" fill-opacity="0.03"/>
  <path d="M1536.42 80.7089L1601.47 49.1934H1616V334.773L1577.47 362.41L1514.95 391.986L1442.95 412.35L1380.43 456.472L1282.54 478.775L1224.44 489.442L1150.54 532.109L1078.55 541.321L1010.97 568.958L833.502 613.08L782.977 622.292L686.981 690.172L590.984 745.445L521.513 800.719L461.515 809.931L356.045 846.78L298.574 871.023L243.628 915.145L190.577 938.902L166.578 970.418L190.577 1009.21L221.524 1047.51L298.574 1095.51L375.623 1130.42L435.621 1148.84L502.566 1180.36L550.564 1209.94L626.983 1250.18L686.981 1281.69L757.083 1296.24L806.976 1311.27L889.079 1320.48L986.97 1346.18L1078.55 1360.73L1150.54 1375.76L1238.96 1390.3L1310.96 1416H1030.55L277.799 1404.83L154.209 1375.76L28.2541 1346.18L-63.9948 1296.24L-189.95 1250.18L-296.352 1209.94L-353.751 1167.87L-392.188 1114.8L-446 1028.21L-405.198 856.894L-341.825 800.719L-262.88 758.536L-219.934 712.475L-154.884 671.747L-94.886 651.868L-46.8877 598.049L63.6346 541.321L166.578 489.442L243.628 441.926L375.623 391.986L435.621 362.41L521.513 351.258L590.984 309.076L665.508 276.106L722.979 249.923L833.502 240.711L910.552 226.165L1052.02 193.195L1181.49 172.831L1268.01 161.68L1380.43 126.77L1457.48 101.073L1536.42 80.7089Z" fill="#00B2FF" fill-opacity="0.03"/>
</svg>
