<svg width="1599" height="555" viewBox="0 0 1599 555" fill="none" xmlns="http://www.w3.org/2000/svg">
  <path d="M0 413L31 429.125L74.5 442.128L124 456.692L163.5 486.341L211 497.784L249 525.872L298.5 537.315L343.5 555L398 544.597L461.5 555L491 537.315L530.5 544.597L562.5 555L603.5 544.597L622 550.839L646.5 555L656.5 550.839L672 555H646.5H562.5H461.5H343.5H0V413Z" fill="#00B2FF" fill-opacity="0.03"/>
  <path d="M883.388 33.0347L837.938 1.8877H1665V176.028L1645.8 194.905L1625.31 222.277L1604.19 268.997L1590.1 303.448L1576.02 332.707L1604.19 398.305L1590.1 458.239L1576.02 494.577L1553.4 554.04L1431.35 554.984H756L798.249 544.602L837.938 520.533L860.983 494.577L896.191 473.813L951.883 458.239L987.091 482.307L1033.82 473.813L1077.99 458.239L1140.08 446.309L1183.61 458.239L1223.3 439.362L1211.78 398.305L1246.35 351.584L1298.2 332.707L1344.93 303.448L1367.97 256.727V222.277L1344.93 194.905L1298.2 176.028L1262.99 137.802L1246.35 117.509L1223.3 107.127H1183.61L1158.01 117.509H1120.24L1077.99 107.127L1013.98 96.7446L997.333 67.9572L951.883 44.8329L883.388 33.0347Z" fill="#00B2FF" fill-opacity="0.03"/>
  <path d="M904.5 21.2728L873 0H1599V554.984H1060.5L1106 541.747L1141 527.093L1180 515.275L1225.5 527.093L1269 503.929L1320 492.111L1372.5 503.929L1437.5 515.275L1488.5 492.111L1516.5 468.947V412.692L1507.5 372.983L1488.5 343.201L1453.5 324.765L1437.5 296.401V255.274L1420 203.746L1358.5 178.692L1320 155.528L1292 117.71L1253.5 101.164L1211.5 74.6912L1169 89.3458L1127 74.6912L1080 58.1457L1041.5 31.2001L1001 21.2728L966 31.2001H936L904.5 21.2728Z" fill="#00B2FF" fill-opacity="0.03"/>
  <path d="M1540.5 420.973L1600 382.748V555H1200.5L1226.5 532.348L1263.5 511.111L1294.5 500.257L1339.5 511.111L1393 500.257L1422 477.133L1471 460.615L1514.5 438.907L1540.5 420.973Z" fill="#00B2FF" fill-opacity="0.03"/>
  <path d="M898.991 524.946L915 545.753V555H640.85H496.271H369.202H205.112H0V329.361V163.369V2H337.184L357.695 8.47324L388.212 21.4197L423.732 37.1405L451.247 55.1731L473.759 71.8186L496.271 96.3244L507.777 122.217V156.433L496.271 204.52L486.266 241.048L464.754 286.823L444.243 307.167L406.222 337.684L369.202 355.254H315.672L282.654 349.243L261.143 329.361L270.148 307.167L282.654 286.823L289.158 271.564L308.168 262.317L326.178 241.048L337.184 217.467L315.672 192.961L289.158 178.627L270.148 169.38L238.13 156.433L194.606 129.153L155.585 115.282L123.568 106.959H94.5517H69.0377L38.521 122.217L14.0077 139.788L0 163.369V329.361L6.50355 355.254L25.5139 378.835L49.5271 407.965L76.5418 436.17L105.558 472.235L131.072 503.214L155.585 531.881L170.593 545.753L205.112 555H369.202L397.217 552.226L418.729 538.817L444.243 531.881L464.754 538.817L496.271 555H640.85L647.854 552.226L656.359 546.677L668.865 538.817L692.378 524.946L705.886 511.537L721.894 492.579L742.406 480.558L768.42 472.235L793.434 480.558L825.951 492.579L863.972 511.537L898.991 524.946Z" fill="#00B2FF" fill-opacity="0.03"/>
</svg>
