<svg width="35" height="35" viewBox="0 0 35 35" fill="none" xmlns="http://www.w3.org/2000/svg">
  <g clip-path="url(#clip0_47_2)">
    <path d="M34.3164 20.7385H30.046L26.8969 7.64983C26.8086 7.28301 26.44 7.05702 26.0728 7.14506L21.4554 8.25262L21.4553 0.917114C21.4553 0.539565 21.1492 0.233521 20.7717 0.233521H11.9984C11.621 0.233521 11.3148 0.539565 11.3148 0.917114V4.29954H4.42832C4.05084 4.29954 3.74473 4.60558 3.74473 4.98313V20.7385H0.683594C0.306113 20.7385 0 21.0446 0 21.4221V34.0829C0 34.4604 0.306113 34.7665 0.683594 34.7665H14.434C14.8115 34.7665 15.1176 34.4604 15.1176 34.0829C15.1176 33.7054 14.8115 33.3993 14.434 33.3993H1.36719V22.1057H6.25762C6.97197 22.1057 7.57148 22.7052 7.57148 23.4196C7.57148 24.8787 8.79471 26.1002 10.2525 26.1002H23.9109C25.3684 26.1002 26.5919 24.8811 26.5919 23.4196C26.5919 22.6951 27.1813 22.1057 27.9057 22.1057H33.6329V33.3993H20.5172C20.1397 33.3993 19.8336 33.7054 19.8336 34.0829C19.8336 34.4604 20.1397 34.7665 20.5172 34.7665H34.3164C34.6939 34.7665 35 34.4604 35 34.0829V21.4221C35 21.0446 34.6939 20.7385 34.3164 20.7385ZM25.216 23.5651C25.1952 23.7527 25.1336 23.9318 25.0363 24.0935L22.6043 13.8688L26.7477 12.8744L28.6398 20.7386H27.9054C26.4271 20.7386 25.2245 21.9412 25.2245 23.4195C25.2245 23.4681 25.2213 23.5168 25.216 23.5651ZM12.682 22.5237H20.0881V24.7328H12.682V22.5237ZM12.682 21.1565V9.74716H20.0881V21.1565H12.682ZM20.0881 8.37998H12.682V5.66666H20.0881V8.37998ZM21.4553 14.9473L23.7831 24.7332H21.4554L21.4553 14.9473ZM25.7275 8.63386L26.4279 11.5452L22.2877 12.5388L21.5946 9.62514L25.7275 8.63386ZM20.0881 1.60071V4.29947H12.682V1.60071H20.0881ZM5.11191 5.66672H11.3147V24.7328H10.2525C9.53408 24.7328 8.9386 24.1313 8.9386 23.4142V9.38978C8.9386 9.01223 8.63249 8.70619 8.25501 8.70619C7.87753 8.70619 7.57142 9.01223 7.57142 9.38978V21.082C7.17227 20.8568 6.7161 20.7385 6.25789 20.7385H5.11191V5.66672Z" fill="#150A41"/>
    <path d="M22.8084 29.7982C22.8084 28.6022 21.8354 27.6292 20.6394 27.6292H14.3606C13.1646 27.6292 12.1915 28.6022 12.1915 29.7982C12.1915 30.9943 13.1646 31.9673 14.3606 31.9673H20.6394C21.8354 31.9673 22.8084 30.9943 22.8084 29.7982ZM13.5587 29.7982C13.5587 29.356 13.9185 28.9963 14.3606 28.9963H20.6394C21.0815 28.9963 21.4412 29.356 21.4412 29.7982C21.4412 30.2403 21.0815 30.6001 20.6394 30.6001H14.3606C13.9184 30.6001 13.5587 30.2404 13.5587 29.7982Z" fill="#150A41"/>
    <path d="M18.0735 33.8213C17.9615 33.5525 17.6833 33.3795 17.3925 33.4013C17.0955 33.4235 16.8418 33.6424 16.7762 33.933C16.6415 34.53 17.3344 34.9918 17.8358 34.6416C18.0957 34.4599 18.1932 34.1134 18.0735 33.8213Z" fill="#150A41"/>
  </g>
  <defs>
    <clipPath id="clip0_47_2">
      <rect width="35" height="35" fill="white"/>
    </clipPath>
  </defs>
</svg>
