<svg width="21" height="21" viewBox="0 0 21 21" fill="none" xmlns="http://www.w3.org/2000/svg">
  <path d="M18.7203 14.799C17.3974 13.6806 16.6387 12.0461 16.6387 10.3145V7.875C16.6387 4.79594 14.3515 2.24705 11.3887 1.82007V0.874947C11.3887 0.39109 10.9967 0 10.5136 0C10.0307 0 9.63867 0.39109 9.63867 0.874947V1.82007C6.67497 2.24705 4.38867 4.79594 4.38867 7.875V10.3145C4.38867 12.0461 3.63004 13.6806 2.29912 14.8058C1.95882 15.0973 1.76367 15.5207 1.76367 15.9687C1.76367 16.8132 2.45052 17.5001 3.29487 17.5001H17.7324C18.5769 17.5001 19.2637 16.8132 19.2637 15.9687C19.2637 15.5207 19.0686 15.0973 18.7203 14.799Z" fill="#150A41"/>
  <path d="M10.5136 21C12.0983 21 13.424 19.8703 13.7284 18.375H7.29886C7.60343 19.8703 8.92907 21 10.5136 21Z" fill="#150A41"/>
</svg>
