<svg xmlns="http://www.w3.org/2000/svg" width="18" height="18" viewBox="0 0 18 18" fill="none">
  <path d="M1.45946 1.70386C0.651876 1.70386 0 2.35574 0 3.16332C0 3.97091 0.651876 4.62278 1.45946 4.62278C2.26704 4.62278 2.91892 3.97091 2.91892 3.16332C2.91892 2.35574 2.26704 1.70386 1.45946 1.70386Z" fill="black" fill-opacity="1"/>
  <path d="M1.45946 7.54175C0.651876 7.54175 0 8.19363 0 9.00122C0 9.8088 0.651876 10.4607 1.45946 10.4607C2.26704 10.4607 2.91892 9.8088 2.91892 9.00122C2.91892 8.19363 2.26704 7.54175 1.45946 7.54175Z" fill="black" fill-opacity="1"/>
  <path d="M1.45946 13.3796C0.647042 13.3796 0 14.0364 0 14.8391C0 15.6418 0.656756 16.2986 1.45946 16.2986C2.26216 16.2986 2.91892 15.6418 2.91892 14.8391C2.91892 14.0364 2.27187 13.3796 1.45946 13.3796Z" fill="black" fill-opacity="1"/>
  <path d="M17.027 13.866H5.35134C4.81397 13.866 4.37836 14.3016 4.37836 14.8389C4.37836 15.3763 4.81398 15.8119 5.35134 15.8119H17.027C17.5644 15.8119 18 15.3763 18 14.8389C18 14.3016 17.5644 13.866 17.027 13.866Z" fill="black" fill-opacity="1"/>
  <path d="M17.027 2.18921H5.35134C4.81398 2.18921 4.37836 2.62483 4.37836 3.16219C4.37836 3.69955 4.81398 4.13517 5.35134 4.13517H17.027C17.5644 4.13517 18 3.69955 18 3.16219C18 2.62483 17.5644 2.18921 17.027 2.18921Z" fill="black" fill-opacity="1"/>
  <path d="M17.027 8.02808H5.35134C4.81398 8.02808 4.37836 8.46369 4.37836 9.00106C4.37836 9.53842 4.81398 9.97404 5.35134 9.97404H17.027C17.5644 9.97404 18 9.53842 18 9.00106C18 8.46369 17.5644 8.02808 17.027 8.02808Z" fill="black" fill-opacity="1"/>
</svg>
