<svg width="34" height="24" viewBox="0 0 34 24" fill="none" xmlns="http://www.w3.org/2000/svg">
  <g filter="url(#filter0_d_183_116)">
    <path d="M18.5714 9.42858H13.7143C13.5565 9.42858 13.7744 9.42858 13.4286 9.42858C14.2328 9.42858 12.7889 9.42871 12 9.42871C11.2111 9.42871 11.9533 9.42806 10.5714 9.42825C10.38 9.42825 10.4435 9.42858 10.2857 9.42858H5.42857C4.63965 9.42858 4 8.78893 4 8.00001C4 7.21109 4.63965 6.57144 5.42857 6.57144H10.2857C10.4435 6.57144 10.2857 6.57144 10.5714 6.57144H10.7144C11.8418 6.57144 11.2111 6.57144 12 6.57144C12.7889 6.57144 12.4117 6.57144 13.4286 6.57144C13.7143 6.57144 13.5565 6.57144 13.7143 6.57144H18.5714C19.3604 6.57144 20 7.21109 20 8.00001C20 8.78893 19.3604 9.42858 18.5714 9.42858Z" fill="#150A41" fill-opacity="0.77"/>
  </g>
  <defs>
    <filter id="filter0_d_183_116" x="0" y="-4" width="34" height="34" filterUnits="userSpaceOnUse" color-interpolation-filters="sRGB">
      <feFlood flood-opacity="0" result="BackgroundImageFix"/>
      <feColorMatrix in="SourceAlpha" type="matrix" values="0 0 0 0 0 0 0 0 0 0 0 0 0 0 0 0 0 0 127 0" result="hardAlpha"/>
      <feOffset dx="5" dy="5"/>
      <feGaussianBlur stdDeviation="4.5"/>
      <feColorMatrix type="matrix" values="0 0 0 0 0 0 0 0 0 0 0 0 0 0 0 0 0 0 0.16 0"/>
      <feBlend mode="normal" in2="BackgroundImageFix" result="effect1_dropShadow_183_116"/>
      <feBlend mode="normal" in="SourceGraphic" in2="effect1_dropShadow_183_116" result="shape"/>
    </filter>
  </defs>
</svg>
