<svg width="34" height="34" viewBox="0 0 34 34" fill="none" xmlns="http://www.w3.org/2000/svg">
  <g clip-path="url(#clip0_183_114)" filter="url(#filter0_d_183_114)">
    <path d="M18.5714 13.4286H13.7143C13.5565 13.4286 13.4286 13.5565 13.4286 13.7143V18.5714C13.4286 19.3604 12.7889 20 12 20C11.2111 20 10.5714 19.3604 10.5714 18.5714V13.7143C10.5714 13.5565 10.4435 13.4286 10.2857 13.4286H5.42857C4.63965 13.4286 4 12.7889 4 12C4 11.2111 4.63965 10.5714 5.42857 10.5714H10.2857C10.4435 10.5714 10.5714 10.4435 10.5714 10.2857V5.42857C10.5714 4.63965 11.2111 4 12 4C12.7889 4 13.4286 4.63965 13.4286 5.42857V10.2857C13.4286 10.4435 13.5565 10.5714 13.7143 10.5714H18.5714C19.3604 10.5714 20 11.2111 20 12C20 12.7889 19.3604 13.4286 18.5714 13.4286Z" fill="#150A41"/>
  </g>
  <defs>
    <filter id="filter0_d_183_114" x="0" y="0" width="34" height="34" filterUnits="userSpaceOnUse" color-interpolation-filters="sRGB">
      <feFlood flood-opacity="0" result="BackgroundImageFix"/>
      <feColorMatrix in="SourceAlpha" type="matrix" values="0 0 0 0 0 0 0 0 0 0 0 0 0 0 0 0 0 0 127 0" result="hardAlpha"/>
      <feOffset dx="5" dy="5"/>
      <feGaussianBlur stdDeviation="4.5"/>
      <feColorMatrix type="matrix" values="0 0 0 0 0 0 0 0 0 0 0 0 0 0 0 0 0 0 0.16 0"/>
      <feBlend mode="normal" in2="BackgroundImageFix" result="effect1_dropShadow_183_114"/>
      <feBlend mode="normal" in="SourceGraphic" in2="effect1_dropShadow_183_114" result="shape"/>
    </filter>
  </defs>
</svg>
