<svg width="14" height="11" viewBox="0 0 14 11" fill="none" xmlns="http://www.w3.org/2000/svg">
  <path d="M10.2113 5.07078L4.42611 0.17573C4.2923 0.0624223 4.11369 0 3.92323 0C3.73278 0 3.55416 0.0624223 3.42036 0.17573L2.99432 0.536134C2.7171 0.770977 2.7171 1.15267 2.99432 1.38715L7.85227 5.49772L2.98893 9.61285C2.85513 9.72616 2.78125 9.8772 2.78125 10.0383C2.78125 10.1995 2.85513 10.3506 2.98893 10.464L3.41497 10.8243C3.54888 10.9376 3.72739 11 3.91784 11C4.1083 11 4.28691 10.9376 4.42072 10.8243L10.2113 5.92475C10.3454 5.81108 10.4191 5.65932 10.4186 5.49799C10.4191 5.33603 10.3454 5.18436 10.2113 5.07078Z" fill="black"/>
</svg>
