<svg xmlns="http://www.w3.org/2000/svg" width="17" height="17" viewBox="0 0 17 17" fill="none">
  <g clip-path="url(#clip0_404_39)">
    <path d="M10.625 0H16.0893C16.5922 0 17 0.407776 17 0.910714V6.375C17 6.87794 16.5922 7.28572 16.0893 7.28572H10.625C10.1221 7.28572 9.71429 6.87794 9.71429 6.375V0.910714C9.71429 0.407776 10.1221 0 10.625 0Z" fill="black"/>
    <path d="M0.910714 0H6.375C6.87794 0 7.28572 0.407776 7.28572 0.910714V6.375C7.28572 6.87794 6.87794 7.28572 6.375 7.28572H0.910714C0.407776 7.28572 0 6.87794 0 6.375V0.910714C0 0.407776 0.407776 0 0.910714 0Z" fill="black"/>
    <path d="M10.625 9.71436H16.0893C16.5922 9.71436 17 10.1221 17 10.6251V16.0894C17 16.5923 16.5922 17.0001 16.0893 17.0001H10.625C10.1221 17.0001 9.71429 16.5923 9.71429 16.0894V10.6251C9.71429 10.1221 10.1221 9.71436 10.625 9.71436Z" fill="black"/>
    <path d="M0.910714 9.71436H6.375C6.87794 9.71436 7.28572 10.1221 7.28572 10.6251V16.0894C7.28572 16.5923 6.87794 17.0001 6.375 17.0001H0.910714C0.407776 17.0001 0 16.5923 0 16.0894V10.6251C0 10.1221 0.407776 9.71436 0.910714 9.71436Z" fill="black"/>
  </g>
  <defs>
    <clipPath id="clip0_404_39">
      <rect width="17" height="17" fill="white"/>
    </clipPath>
  </defs>
</svg>
