<svg width="1600" height="1089" viewBox="0 0 1600 1089" fill="none" xmlns="http://www.w3.org/2000/svg">
  <path d="M193.47 3.82336L173 0H1600V571.912V1140H247.129H-13L124.5 1110L247.129 1082L395.5 1039L606 975L755 922L963 837L1142 736L1388 558.5L1447 511.5L1497.5 469L1528.5 424L1497.5 369.5L1448 350.5V248.267V129.5V126.5L1447.5 124L1447 122.5L1446 120L1445 118.5L1444 117.5L1443 116.5L1442 115.5L1440 114L1437.5 113L1436.75 112.75L1436 112.5L1434 112H1433H1432.5H671.5L594 93L473 65.5L383 41L327 24L280.5 16.5L234.5 8L193.47 3.82336Z" fill="#00B2FF" fill-opacity="0.06"/>
  <path d="M175 14L52 0H1600L1600 1140H-35L0 1103.5L74.5 1060.5L203 1023.5L352.5 978L527 919.5L664 872L818 818L932 772L1062.5 722.5L1164.5 674.5L1247.5 633L1332.5 580.201L1477 492.5L1506.5 473L1514 448L1506.5 426.5L1491.5 407.5L1448 367V243V206.5V172.5V148.268V136V130L1447.99 127L1447.95 126.5L1447.89 126L1447.79 125.5L1447.66 124.75L1447.5 124L1447.35 123.5L1447.22 123.085L1447.07 122.67L1446.82 122.005L1446.55 121.34L1446.2 120.62L1445.79 119.9L1445.38 119.19L1445 118.68L1444.72 118.28L1444.53 118.03L1444.33 117.82L1443.95 117.45L1443.56 117.05L1443.17 116.65L1442.78 116.26L1442.39 115.87L1441.5 115.11L1439.99 114.12L1439 113.59L1437.5 112.98L1436.72 112.72L1436 112.5L1435.62 112.41L1435.25 112.34L1434.5 112.19L1433 112.01L1424 112H596L527 97L398 65.5L284.5 34.5L175 14Z" fill="#00B2FF" fill-opacity="0.1"/>
  <path d="M803 37.5L571.5 0H1680V1140H1679.5H0V948L80 930.5L380.5 881.5L748 812L1022.5 746.5L1320 634L1514 541.5L1611.5 484L1643.5 463.5L1660 428V385L1631.5 347L1579.5 314L1533.5 287.5L1489.5 263L1449 244V218V127L1448.5 124L1447 120.5L1445.5 118.5L1443 115.5L1440.5 114L1438.5 113L1436.5 112.5L1434.5 112H1432.5L1162.5 112.5L1060.75 90.25L934 61.5L803 37.5Z" fill="#00B2FF" fill-opacity="0.07"/>
</svg>
