<svg width="1600" height="1844" viewBox="0 0 1600 1844" fill="none" xmlns="http://www.w3.org/2000/svg">
  <path d="M2108.41 -155.019L2183.66 -191H2200.47V135.043L2155.9 166.596L2083.57 200.363L2000.29 223.612L1927.96 273.985L1814.72 299.449L1747.5 311.627L1662.02 360.34L1578.74 370.857L1500.56 402.41L1295.27 452.783L1236.82 463.301L1125.77 540.798L1014.72 603.903L934.355 667.009L864.949 677.526L742.94 719.596L676.456 747.274L612.895 797.647L551.525 824.772L523.763 860.753L551.525 905.037L587.324 948.768L676.456 1003.57L765.588 1043.43L834.994 1064.46L912.437 1100.44L967.962 1134.21L1056.36 1180.15L1125.77 1216.13L1206.86 1232.74L1264.58 1249.9L1359.56 1260.42L1472.8 1289.76L1578.74 1306.36L1662.02 1323.52L1764.31 1340.13L1847.59 1369.47L1895 1442.43L1814.72 1530.84L1417 1721.51L1171.5 1749.73L742.94 1844L447.5 1809.91L363.748 1749.73L523.763 1667.18L676.456 1630.43L845.588 1597.68L1014.72 1564.93L967.962 1442.43L652.424 1356.71L509.454 1323.52L363.748 1289.76L257.034 1232.74L111.328 1180.15L-11.7596 1134.21L-78.1589 1086.18L-122.623 1025.59L-184.873 926.734L-137.673 731.143L-64.3621 667.009L26.9617 618.849L76.6418 566.262L151.893 519.763L221.299 497.068L276.824 435.623L404.677 370.857L523.763 311.627L612.895 257.379L765.588 200.363L834.994 166.596L934.355 153.864L1014.72 105.705L1100.93 68.0633L1167.41 38.1714L1295.27 27.6538L1384.4 11.0472L1548.05 -26.5945L1697.82 -49.8438L1797.91 -62.5755L1927.96 -102.431L2017.09 -131.77L2108.41 -155.019Z" fill="#00B2FF" fill-opacity="0.03"/>
  <path d="M2218.86 -159.03L2299.09 -191H2317V98.6967L2269.49 126.732L2192.38 156.734L2103.59 177.392L2026.48 222.15L1905.75 244.775L1834.1 255.595L1742.97 298.878L1654.17 308.223L1570.83 336.258L1351.97 381.016L1289.66 390.361L1171.27 459.219L1052.88 515.289L967.203 571.36L893.21 580.705L763.137 618.085L692.259 642.677L624.497 687.435L559.071 711.536L529.474 743.506L559.071 782.853L597.236 821.709L692.259 870.402L787.282 905.815L861.276 924.505L943.837 956.475L1003.03 986.477L1097.28 1027.3L1171.27 1059.27L1257.73 1074.03L1319.26 1089.27L1420.51 1098.62L1541.24 1124.69L1654.17 1139.44L1742.97 1154.69L1852.01 1169.44L1940.8 1195.51L1852.01 1341.26L1607.91 1467.61L1289.66 1632.29L1126.22 1708L559.071 1687.65L303.422 1556.1L402.516 1467.61L734.143 1366.81L763.137 1252.77L666.639 1184.18L514.219 1154.69L358.883 1124.69L245.115 1074.03L89.7783 1027.3L-41.4444 986.477L-112.232 943.805L-159.636 889.969L-226 802.131L-175.68 628.345L-97.5236 571.36L-0.163788 528.569L52.7999 481.844L133.024 440.529L207.018 420.363L266.213 365.769L402.516 308.223L529.474 255.595L624.497 207.395L787.282 156.734L861.276 126.732L967.203 115.419L1052.88 72.629L1144.79 39.1835L1215.67 12.6239L1351.97 3.27881L1446.99 -11.4766L1621.46 -44.922L1781.13 -65.5795L1887.84 -76.8919L2026.48 -112.305L2121.5 -138.373L2218.86 -159.03Z" fill="#00B2FF" fill-opacity="0.03"/>
  <path d="M2124.2 -111.576L2208.9 -142.59H2227.81V138.442L2177.65 165.638L2096.24 194.743L2002.5 214.783L1921.09 258.202L1793.63 280.15L1717.98 290.647L1621.77 332.635L1528.02 341.701L1440.03 368.897L1208.96 412.316L1143.18 421.382L1018.19 488.18L893.197 542.574L802.742 596.967L724.623 606.032L587.296 642.295L512.466 666.151L440.925 709.57L371.85 732.95L340.603 763.964L371.85 802.134L412.144 839.828L512.466 887.064L612.788 921.418L690.908 939.549L778.073 970.562L840.569 999.667L940.068 1039.27L1018.19 1070.28L1109.46 1084.6L1174.43 1099.39L1281.33 1108.45L1408.79 1133.74L1528.02 1148.06L1621.77 1162.85L1736.89 1177.16L1793.63 1240.02L1736.89 1333.71L1588 1443.09L1355.5 1529.65L1174.43 1646.17L754.5 1707.52L512.466 1610.97L587.296 1554.85L754.5 1496.36L893.197 1465.92L1018.19 1425.5V1333.71L485.417 1191.45L324.498 1162.85L160.499 1133.74L40.3867 1084.6L-123.612 1039.27L-262.153 999.667L-336.888 958.271L-386.935 906.046L-457 820.836L-403.874 652.248L-321.359 596.967L-218.57 555.456L-162.653 510.129L-77.9546 470.049L0.165161 450.487L62.6609 397.525L206.566 341.701L340.603 290.647L440.925 243.888L612.788 194.743L690.908 165.638L802.742 154.664L893.197 113.154L990.23 80.7086L1065.06 54.9434L1208.96 45.8778L1309.29 31.5638L1493.48 -0.881241L1662.06 -20.9208L1774.72 -31.8949L1921.09 -66.2485L2021.41 -91.5366L2124.2 -111.576Z" fill="#00B2FF" fill-opacity="0.03"/>
</svg>
