<svg width="1600" height="1844" viewBox="0 0 1600 1844" fill="none" xmlns="http://www.w3.org/2000/svg">
  <path d="M2108.41 -155.019L2183.66 -191H2200.47V135.043L2155.9 166.596L2083.57 200.363L2000.29 223.612L1927.96 273.985L1814.72 299.449L1747.5 311.627L1662.02 360.34L1578.74 370.857L1500.56 402.41L1295.27 452.783L1236.82 463.301L1125.77 540.798L1014.72 603.903L934.355 667.009L864.949 677.526L742.94 719.596L676.456 747.274L612.895 797.647L551.525 824.772L523.763 860.753L551.525 905.037L587.324 948.768L676.456 1003.57L765.588 1043.43L834.994 1064.46L912.437 1100.44L967.962 1134.21L1056.36 1180.15L1125.77 1216.13L1206.86 1232.74L1264.58 1249.9L1359.56 1260.42L1472.8 1289.76L1578.74 1306.36L1662.02 1323.52L1764.31 1340.13L1847.59 1369.47L1895 1442.43L1814.72 1530.84L1417 1721.51L1171.5 1749.73L742.94 1844L447.5 1809.91L363.748 1749.73L523.763 1667.18L676.456 1630.43L845.588 1597.68L1014.72 1564.93L967.962 1442.43L652.424 1356.71L509.454 1323.52L363.748 1289.76L257.034 1232.74L111.328 1180.15L-11.7596 1134.21L-78.1589 1086.18L-122.623 1025.59L-184.873 926.734L-137.673 731.143L-64.3621 667.009L26.9617 618.849L76.6418 566.262L151.893 519.763L221.299 497.068L276.824 435.623L404.677 370.857L523.763 311.627L612.895 257.379L765.588 200.363L834.994 166.596L934.355 153.864L1014.72 105.705L1100.93 68.0633L1167.41 38.1714L1295.27 27.6538L1384.4 11.0472L1548.05 -26.5945L1697.82 -49.8438L1797.91 -62.5755L1927.96 -102.431L2017.09 -131.77L2108.41 -155.019Z" fill="#00B2FF" fill-opacity="0.03"/>
  <path d="M2229.4 -161.728L2301.01 -191H2317V74.2456L2274.59 99.9146L2205.76 127.385L2126.5 146.299L2057.67 187.279L1949.9 207.994L1885.94 217.902L1804.59 257.531L1725.33 266.087L1650.94 291.756L1455.57 332.736L1399.95 341.293L1294.27 404.339L1188.59 455.677L1112.11 507.015L1046.06 515.571L929.95 549.797L866.681 572.313L806.193 613.293L747.791 635.36L721.371 664.631L747.791 700.658L781.859 736.234L866.681 780.817L951.503 813.241L1017.55 830.353L1091.25 859.625L1144.09 887.095L1228.22 924.473L1294.27 953.744L1371.44 967.254L1426.37 981.215L1516.75 989.771L1624.52 1013.64L1725.33 1027.15L1804.59 1041.11L1901.93 1054.62L1981.19 1078.49L1901.93 1211.93L1684.03 1327.62L1399.95 1478.4L1254.05 1547.72L747.791 1529.09L519.587 1408.64L608.043 1327.62L904.068 1235.33L929.95 1130.91L843.811 1068.11L707.754 1041.11L569.094 1013.64L467.539 967.254L328.878 924.473L211.743 887.095L148.554 848.025L106.24 798.733L47 718.309L91.9183 559.19L161.684 507.015L248.592 467.836L295.87 425.054L367.482 387.227L433.532 368.763L486.372 318.776L608.043 266.087L721.371 217.902L806.193 173.769L951.503 127.385L1017.55 99.9146L1112.11 89.5569L1188.59 50.3781L1270.63 19.7555L1333.9 -4.56247L1455.57 -13.1188L1540.39 -26.6288L1696.13 -57.2513L1838.66 -76.1653L1933.91 -86.5229L2057.67 -118.947L2142.49 -142.814L2229.4 -161.728Z" fill="#00B2FF" fill-opacity="0.03"/>
  <path d="M2124.2 -111.576L2208.9 -142.59H2227.81V138.441L2177.65 165.638L2096.24 194.743L2002.5 214.783L1921.09 258.202L1793.63 280.15L1717.98 290.647L1621.77 332.635L1528.02 341.7L1440.03 368.897L1208.96 412.316L1143.18 421.382L1018.19 488.18L893.197 542.573L802.742 596.967L724.623 606.032L587.296 642.294L512.466 666.151L440.925 709.57L371.85 732.95L340.603 763.963L371.85 802.134L412.144 839.828L512.466 887.064L612.788 921.417L690.908 939.548L778.073 970.562L840.569 999.667L940.068 1039.27L1018.19 1070.28L1109.46 1084.6L1174.43 1099.39L1281.33 1108.45L1408.79 1133.74L1528.02 1148.06L1621.77 1162.85L1736.89 1177.16L1793.63 1240.02L1736.89 1333.71L1588 1443.09L1355.5 1529.65L1174.43 1646.16L754.5 1707.51L512.466 1610.97L587.296 1554.85L754.5 1496.36L893.197 1465.92L1018.19 1425.5V1333.71L485.417 1191.45L324.498 1162.85L160.499 1133.74L40.3867 1084.6L-123.612 1039.27L-262.153 999.667L-336.888 958.271L-386.935 906.046L-457 820.835L-403.874 652.247L-321.359 596.967L-218.57 555.456L-162.653 510.128L-77.9546 470.049L0.165161 450.487L62.6609 397.525L206.566 341.7L340.603 290.647L440.925 243.888L612.788 194.743L690.908 165.638L802.742 154.664L893.197 113.153L990.23 80.7083L1065.06 54.9431L1208.96 45.8776L1309.29 31.5636L1493.48 -0.881485L1662.06 -20.9211L1774.72 -31.8951L1921.09 -66.2487L2021.41 -91.5368L2124.2 -111.576Z" fill="#00B2FF" fill-opacity="0.03"/>
</svg>
