<svg xmlns="http://www.w3.org/2000/svg" xmlns:xlink="http://www.w3.org/1999/xlink" version="1.1" width="1000" height="1000" viewBox="0 0 1000 1000" xml:space="preserve">
<desc>Created with Fabric.js 3.5.0</desc>
<defs>
</defs>
<rect x="0" y="0" width="100%" height="100%" fill="#ffffff"/>
<g transform="matrix(0.3152 0 0 0.2001 746.4187 184.4922)" id="381030">
<g style="" vector-effect="non-scaling-stroke">
		<g transform="matrix(1 0 0 1 207.7985 -95.5)" id="947682">
<path style="stroke: none; stroke-width: 1; stroke-dasharray: none; stroke-linecap: butt; stroke-dashoffset: 0; stroke-linejoin: miter; stroke-miterlimit: 4; is-custom-font: none; font-file-url: none; fill: rgb(0,178,255); fill-opacity: 0.03; fill-rule: nonzero; opacity: 1;" transform=" translate(-1007.7985, -826.5)" d="M 2108.41 -155.019 L 2183.66 -191 H 2200.47 V 135.043 L 2155.9 166.596 L 2083.57 200.363 L 2000.29 223.612 L 1927.96 273.985 L 1814.72 299.449 L 1747.5 311.627 L 1662.02 360.34 L 1578.74 370.857 L 1500.56 402.41 L 1295.27 452.783 L 1236.82 463.301 L 1125.77 540.798 L 1014.72 603.903 L 934.355 667.009 L 864.949 677.526 L 742.94 719.596 L 676.456 747.274 L 612.895 797.647 L 551.525 824.772 L 523.763 860.753 L 551.525 905.037 L 587.324 948.768 L 676.456 1003.57 L 765.588 1043.43 L 834.994 1064.46 L 912.437 1100.44 L 967.962 1134.21 L 1056.36 1180.15 L 1125.77 1216.13 L 1206.86 1232.74 L 1264.58 1249.9 L 1359.56 1260.42 L 1472.8 1289.76 L 1578.74 1306.36 L 1662.02 1323.52 L 1764.31 1340.13 L 1847.59 1369.47 L 1895 1442.43 L 1814.72 1530.84 L 1417 1721.51 L 1171.5 1749.73 L 742.94 1844 L 447.5 1809.91 L 363.748 1749.73 L 523.763 1667.18 L 676.456 1630.43 L 845.588 1597.68 L 1014.72 1564.93 L 967.962 1442.43 L 652.424 1356.71 L 509.454 1323.52 L 363.748 1289.76 L 257.034 1232.74 L 111.328 1180.15 L -11.7596 1134.21 L -78.1589 1086.18 L -122.623 1025.59 L -184.873 926.734 L -137.673 731.143 L -64.3621 667.009 L 26.9617 618.849 L 76.6418 566.262 L 151.893 519.763 L 221.299 497.068 L 276.824 435.623 L 404.677 370.857 L 523.763 311.627 L 612.895 257.379 L 765.588 200.363 L 834.994 166.596 L 934.355 153.864 L 1014.72 105.705 L 1100.93 68.0633 L 1167.41 38.1714 L 1295.27 27.6538 L 1384.4 11.0472 L 1548.05 -26.5945 L 1697.82 -49.8438 L 1797.91 -62.5755 L 1927.96 -102.431 L 2017.09 -131.77 L 2108.41 -155.019 Z" stroke-linecap="round"/>
</g>
		<g transform="matrix(1 0 0 1 382 -243.64)" id="211126">
<path style="stroke: none; stroke-width: 1; stroke-dasharray: none; stroke-linecap: butt; stroke-dashoffset: 0; stroke-linejoin: miter; stroke-miterlimit: 4; is-custom-font: none; font-file-url: none; fill: rgb(0,178,255); fill-opacity: 0.03; fill-rule: nonzero; opacity: 1;" transform=" translate(-1182, -678.36)" d="M 2229.4 -161.728 L 2301.01 -191 H 2317 V 74.2456 L 2274.59 99.9146 L 2205.76 127.385 L 2126.5 146.299 L 2057.67 187.279 L 1949.9 207.994 L 1885.94 217.902 L 1804.59 257.531 L 1725.33 266.087 L 1650.94 291.756 L 1455.57 332.736 L 1399.95 341.293 L 1294.27 404.339 L 1188.59 455.677 L 1112.11 507.015 L 1046.06 515.571 L 929.95 549.797 L 866.681 572.313 L 806.193 613.293 L 747.791 635.36 L 721.371 664.631 L 747.791 700.658 L 781.859 736.234 L 866.681 780.817 L 951.503 813.241 L 1017.55 830.353 L 1091.25 859.625 L 1144.09 887.095 L 1228.22 924.473 L 1294.27 953.744 L 1371.44 967.254 L 1426.37 981.215 L 1516.75 989.771 L 1624.52 1013.64 L 1725.33 1027.15 L 1804.59 1041.11 L 1901.93 1054.62 L 1981.19 1078.49 L 1901.93 1211.93 L 1684.03 1327.62 L 1399.95 1478.4 L 1254.05 1547.72 L 747.791 1529.09 L 519.587 1408.64 L 608.043 1327.62 L 904.068 1235.33 L 929.95 1130.91 L 843.811 1068.11 L 707.754 1041.11 L 569.094 1013.64 L 467.539 967.254 L 328.878 924.473 L 211.743 887.095 L 148.554 848.025 L 106.24 798.733 L 47 718.309 L 91.9183 559.19 L 161.684 507.015 L 248.592 467.836 L 295.87 425.054 L 367.482 387.227 L 433.532 368.763 L 486.372 318.776 L 608.043 266.087 L 721.371 217.902 L 806.193 173.769 L 951.503 127.385 L 1017.55 99.9146 L 1112.11 89.5569 L 1188.59 50.3781 L 1270.63 19.7555 L 1333.9 -4.56247 L 1455.57 -13.1188 L 1540.39 -26.6288 L 1696.13 -57.2513 L 1838.66 -76.1653 L 1933.91 -86.5229 L 2057.67 -118.947 L 2142.49 -142.814 L 2229.4 -161.728 Z" stroke-linecap="round"/>
</g>
		<g transform="matrix(1 0 0 1 85.405 -139.535)" id="336850">
<path style="stroke: none; stroke-width: 1; stroke-dasharray: none; stroke-linecap: butt; stroke-dashoffset: 0; stroke-linejoin: miter; stroke-miterlimit: 4; is-custom-font: none; font-file-url: none; fill: rgb(0,178,255); fill-opacity: 0.03; fill-rule: nonzero; opacity: 1;" transform=" translate(-885.405, -782.465)" d="M 2124.2 -111.576 L 2208.9 -142.59 H 2227.81 V 138.442 L 2177.65 165.638 L 2096.24 194.743 L 2002.5 214.783 L 1921.09 258.202 L 1793.63 280.15 L 1717.98 290.647 L 1621.77 332.635 L 1528.02 341.701 L 1440.03 368.897 L 1208.96 412.316 L 1143.18 421.382 L 1018.19 488.18 L 893.197 542.574 L 802.742 596.967 L 724.623 606.032 L 587.296 642.295 L 512.466 666.151 L 440.925 709.57 L 371.85 732.95 L 340.603 763.964 L 371.85 802.134 L 412.144 839.828 L 512.466 887.064 L 612.788 921.418 L 690.908 939.549 L 778.073 970.562 L 840.569 999.667 L 940.068 1039.27 L 1018.19 1070.28 L 1109.46 1084.6 L 1174.43 1099.39 L 1281.33 1108.45 L 1408.79 1133.74 L 1528.02 1148.06 L 1621.77 1162.85 L 1736.89 1177.16 L 1793.63 1240.02 L 1736.89 1333.71 L 1588 1443.09 L 1355.5 1529.65 L 1174.43 1646.17 L 754.5 1707.52 L 512.466 1610.97 L 587.296 1554.85 L 754.5 1496.36 L 893.197 1465.92 L 1018.19 1425.5 V 1333.71 L 485.417 1191.45 L 324.498 1162.85 L 160.499 1133.74 L 40.3867 1084.6 L -123.612 1039.27 L -262.153 999.667 L -336.888 958.271 L -386.935 906.046 L -457 820.836 L -403.874 652.248 L -321.359 596.967 L -218.57 555.456 L -162.653 510.129 L -77.9546 470.049 L 0.165161 450.487 L 62.6609 397.525 L 206.566 341.701 L 340.603 290.647 L 440.925 243.888 L 612.788 194.743 L 690.908 165.638 L 802.742 154.664 L 893.197 113.154 L 990.23 80.7086 L 1065.06 54.9434 L 1208.96 45.8778 L 1309.29 31.5638 L 1493.48 -0.881241 L 1662.06 -20.9208 L 1774.72 -31.8949 L 1921.09 -66.2485 L 2021.41 -91.5366 L 2124.2 -111.576 Z" stroke-linecap="round"/>
</g>
</g>
</g>
<g transform="matrix(0.3148 0 0 0.1749 746.0987 547.3194)" id="556390">
<g style="" vector-effect="non-scaling-stroke">
		<g transform="matrix(1 0 0 1 425.7984 0)" id="155620">
<path style="stroke: none; stroke-width: 1; stroke-dasharray: none; stroke-linecap: butt; stroke-dashoffset: 0; stroke-linejoin: miter; stroke-miterlimit: 4; is-custom-font: none; font-file-url: none; fill: rgb(0,178,255); fill-opacity: 0.03; fill-rule: nonzero; opacity: 1;" transform=" translate(-1225.7984, -882.5)" d="M 2326.41 1733.79 L 2401.66 1765 H 2418.47 V 1482.22 L 2373.9 1454.85 L 2301.57 1425.56 L 2218.29 1405.4 L 2145.96 1361.71 L 2032.72 1339.62 L 1965.5 1329.06 L 1880.02 1286.81 L 1796.74 1277.69 L 1718.56 1250.32 L 1513.27 1206.63 L 1454.82 1197.51 L 1343.77 1130.3 L 1232.72 1075.56 L 1152.35 1020.83 L 1082.95 1011.71 L 960.94 975.22 L 894.456 951.214 L 830.895 907.525 L 769.525 883.999 L 741.763 852.792 L 769.525 814.383 L 805.324 776.455 L 894.456 728.924 L 983.588 694.356 L 1052.99 676.112 L 1130.44 644.905 L 1185.96 615.618 L 1274.36 575.769 L 1343.77 544.562 L 1424.86 530.158 L 1482.58 515.275 L 1577.56 506.153 L 1690.8 480.707 L 1796.74 466.304 L 1880.02 451.421 L 1982.31 437.017 L 2065.59 411.572 L 2113 348.288 L 2032.72 271.609 L 1635 106.242 L 1389.5 81.76 L 960.94 0 L 665.5 29.5629 L 581.748 81.76 L 741.763 153.358 L 894.456 185.23 L 1063.59 213.638 L 1232.72 242.047 L 1185.96 348.288 L 870.424 422.635 L 727.454 451.421 L 581.748 480.707 L 475.034 530.158 L 329.328 575.769 L 206.24 615.618 L 139.841 657.272 L 95.3768 709.823 L 33.1267 795.565 L 80.3273 965.205 L 153.638 1020.83 L 244.962 1062.6 L 294.642 1108.21 L 369.893 1148.54 L 439.299 1168.22 L 494.824 1221.52 L 622.677 1277.69 L 741.763 1329.06 L 830.895 1376.11 L 983.588 1425.56 L 1052.99 1454.85 L 1152.35 1465.89 L 1232.72 1507.66 L 1318.93 1540.31 L 1385.41 1566.23 L 1513.27 1575.36 L 1602.4 1589.76 L 1766.05 1622.41 L 1915.82 1642.57 L 2015.91 1653.61 L 2145.96 1688.18 L 2235.09 1713.63 L 2326.41 1733.79 Z" stroke-linecap="round"/>
</g>
		<g transform="matrix(1 0 0 1 600 128.485)" id="914340">
<path style="stroke: none; stroke-width: 1; stroke-dasharray: none; stroke-linecap: butt; stroke-dashoffset: 0; stroke-linejoin: miter; stroke-miterlimit: 4; is-custom-font: none; font-file-url: none; fill: rgb(0,178,255); fill-opacity: 0.03; fill-rule: nonzero; opacity: 1;" transform=" translate(-1400, -1010.985)" d="M 2447.4 1739.61 L 2519.01 1765 H 2535 V 1534.95 L 2492.59 1512.68 L 2423.76 1488.86 L 2344.5 1472.45 L 2275.67 1436.91 L 2167.9 1418.94 L 2103.94 1410.35 L 2022.59 1375.98 L 1943.33 1368.56 L 1868.94 1346.3 L 1673.57 1310.75 L 1617.95 1303.33 L 1512.27 1248.65 L 1406.59 1204.12 L 1330.11 1159.6 L 1264.06 1152.18 L 1147.95 1122.49 L 1084.68 1102.96 L 1024.19 1067.42 L 965.791 1048.28 L 939.371 1022.89 L 965.791 991.646 L 999.859 960.79 L 1084.68 922.122 L 1169.5 894 L 1235.55 879.158 L 1309.25 853.77 L 1362.09 829.944 L 1446.22 797.526 L 1512.27 772.138 L 1589.44 760.421 L 1644.37 748.312 L 1734.75 740.891 L 1842.52 720.191 L 1943.33 708.473 L 2022.59 696.365 L 2119.93 684.647 L 2199.19 663.947 L 2119.93 548.204 L 1902.03 447.869 L 1617.95 317.096 L 1472.05 256.97 L 965.791 273.129 L 737.587 377.597 L 826.043 447.869 L 1122.07 527.912 L 1147.95 618.476 L 1061.81 672.947 L 925.754 696.365 L 787.094 720.191 L 685.539 760.421 L 546.878 797.526 L 429.743 829.944 L 366.554 863.831 L 324.24 906.583 L 265 976.337 L 309.918 1114.34 L 379.684 1159.6 L 466.592 1193.58 L 513.87 1230.68 L 585.482 1263.49 L 651.532 1279.51 L 704.372 1322.86 L 826.043 1368.56 L 939.371 1410.35 L 1024.19 1448.63 L 1169.5 1488.86 L 1235.55 1512.68 L 1330.11 1521.67 L 1406.59 1555.65 L 1488.63 1582.21 L 1551.9 1603.3 L 1673.57 1610.72 L 1758.39 1622.44 L 1914.13 1649 L 2056.66 1665.4 L 2151.91 1674.38 L 2275.67 1702.51 L 2360.49 1723.21 L 2447.4 1739.61 Z" stroke-linecap="round"/>
</g>
		<g transform="matrix(1 0 0 1 303.405 38.193)" id="368532">
<path style="stroke: none; stroke-width: 1; stroke-dasharray: none; stroke-linecap: butt; stroke-dashoffset: 0; stroke-linejoin: miter; stroke-miterlimit: 4; is-custom-font: none; font-file-url: none; fill: rgb(0,178,255); fill-opacity: 0.03; fill-rule: nonzero; opacity: 1;" transform=" translate(-1103.405, -920.693)" d="M 2342.2 1696.11 L 2426.9 1723.01 H 2445.81 V 1479.27 L 2395.65 1455.68 L 2314.24 1430.44 L 2220.5 1413.06 L 2139.09 1375.4 L 2011.63 1356.36 L 1935.98 1347.26 L 1839.77 1310.84 L 1746.02 1302.98 L 1658.03 1279.39 L 1426.96 1241.73 L 1361.18 1233.87 L 1236.19 1175.93 L 1111.2 1128.76 L 1020.74 1081.58 L 942.623 1073.72 L 805.296 1042.27 L 730.466 1021.57 L 658.925 983.916 L 589.85 963.638 L 558.603 936.739 L 589.85 903.633 L 630.144 870.94 L 730.466 829.971 L 830.788 800.176 L 908.908 784.45 L 996.073 757.552 L 1058.57 732.308 L 1158.07 697.96 L 1236.19 671.062 L 1327.46 658.647 L 1392.43 645.818 L 1499.33 637.955 L 1626.79 616.022 L 1746.02 603.607 L 1839.77 590.779 L 1954.89 578.364 L 2011.63 523.845 L 1954.89 442.586 L 1806 347.716 L 1573.5 272.644 L 1392.43 171.586 L 972.5 118.376 L 730.466 202.11 L 805.296 250.783 L 972.5 301.518 L 1111.2 327.917 L 1236.19 362.978 V 442.586 L 703.417 565.967 L 542.498 590.779 L 378.499 616.022 L 258.387 658.647 L 94.3877 697.96 L -44.1526 732.308 L -118.888 768.212 L -168.935 813.508 L -239 887.413 L -185.874 1033.63 L -103.359 1081.58 L -0.570038 1117.58 L 55.3472 1156.9 L 140.045 1191.66 L 218.165 1208.62 L 280.661 1254.56 L 424.566 1302.98 L 558.603 1347.26 L 658.925 1387.81 L 830.788 1430.44 L 908.908 1455.68 L 1020.74 1465.2 L 1111.2 1501.2 L 1208.23 1529.34 L 1283.06 1551.69 L 1426.96 1559.55 L 1527.29 1571.97 L 1711.48 1600.11 L 1880.06 1617.49 L 1992.72 1627 L 2139.09 1656.8 L 2239.41 1678.73 L 2342.2 1696.11 Z" stroke-linecap="round"/>
</g>
</g>
</g>
<g transform="matrix(0.3148 0 0 0.1821 746.0987 863.3805)" id="177097">
<g style="" vector-effect="non-scaling-stroke">
		<g transform="matrix(1 0 0 1 510.7985 0)" id="206884">
<path style="stroke: none; stroke-width: 1; stroke-dasharray: none; stroke-linecap: butt; stroke-dashoffset: 0; stroke-linejoin: miter; stroke-miterlimit: 4; is-custom-font: none; font-file-url: none; fill: rgb(0,178,255); fill-opacity: 0.03; fill-rule: nonzero; opacity: 1;" transform=" translate(-1310.7985, -752)" d="M 2411.41 26.5924 L 2486.66 0 H 2503.47 V 240.968 L 2458.9 264.287 L 2386.57 289.243 L 2303.29 306.426 L 2230.96 343.655 L 2117.72 362.474 L 2050.5 371.475 L 1965.02 407.477 L 1881.74 415.25 L 1803.56 438.569 L 1598.27 475.798 L 1539.82 483.572 L 1428.77 540.847 L 1317.72 587.486 L 1237.35 634.125 L 1167.95 641.898 L 1045.94 672.991 L 979.456 693.447 L 915.895 730.676 L 854.525 750.723 L 826.763 777.315 L 854.525 810.044 L 890.324 842.364 L 979.456 882.866 L 1068.59 912.322 L 1137.99 927.868 L 1215.44 954.461 L 1270.96 979.417 L 1359.36 1013.37 L 1428.77 1039.97 L 1509.86 1052.24 L 1567.58 1064.92 L 1662.56 1072.69 L 1775.8 1094.38 L 1881.74 1106.65 L 1965.02 1119.33 L 2067.31 1131.61 L 2150.59 1153.29 L 2198 1207.21 L 2117.72 1272.55 L 1720 1413.47 L 1474.5 1434.33 L 1045.94 1504 L 750.5 1478.81 L 666.748 1434.33 L 826.763 1373.32 L 979.456 1346.16 L 1148.59 1321.95 L 1317.72 1297.75 L 1270.96 1207.21 L 955.424 1143.86 L 812.454 1119.33 L 666.748 1094.38 L 560.034 1052.24 L 414.328 1013.37 L 291.24 979.417 L 224.841 943.922 L 180.377 899.142 L 118.127 826.079 L 165.327 681.525 L 238.638 634.125 L 329.962 598.532 L 379.642 559.667 L 454.893 525.301 L 524.299 508.528 L 579.824 463.116 L 707.677 415.25 L 826.763 371.475 L 915.895 331.382 L 1068.59 289.243 L 1137.99 264.287 L 1237.35 254.877 L 1317.72 219.285 L 1403.93 191.465 L 1470.41 169.373 L 1598.27 161.6 L 1687.4 149.326 L 1851.05 121.507 L 2000.82 104.324 L 2100.91 94.9142 L 2230.96 65.4581 L 2320.09 43.7751 L 2411.41 26.5924 Z" stroke-linecap="round"/>
</g>
		<g transform="matrix(1 0 0 1 550.5 -34.5)" id="884043">
<path style="stroke: none; stroke-width: 1; stroke-dasharray: none; stroke-linecap: butt; stroke-dashoffset: 0; stroke-linejoin: miter; stroke-miterlimit: 4; is-custom-font: none; font-file-url: none; fill: rgb(0,178,255); fill-opacity: 0.03; fill-rule: nonzero; opacity: 1;" transform=" translate(-1350.5, -717.5)" d="M 2522.02 24.1584 L 2602.11 0 H 2620 V 218.912 L 2572.56 240.098 L 2495.58 262.769 L 2406.92 278.379 L 2329.94 312.201 L 2209.4 329.298 L 2137.85 337.475 L 2046.87 370.181 L 1958.22 377.243 L 1875.01 398.428 L 1656.49 432.25 L 1594.28 439.312 L 1476.07 491.345 L 1357.87 533.715 L 1272.33 576.086 L 1198.45 583.147 L 1068.58 611.394 L 997.815 629.977 L 930.159 663.799 L 864.836 682.011 L 835.285 706.169 L 864.836 735.903 L 902.941 765.265 L 997.815 802.06 L 1092.69 828.82 L 1166.57 842.943 L 1249 867.102 L 1308.1 889.773 L 1402.19 920.622 L 1476.07 944.78 L 1562.39 955.93 L 1623.83 967.452 L 1724.92 974.514 L 1845.46 994.212 L 1958.22 1005.36 L 2046.87 1016.88 L 2155.74 1028.03 L 2244.39 1047.73 L 2155.74 1157.87 L 1912.02 1253.35 L 1594.28 1377.79 L 1431.09 1435 L 864.836 1419.62 L 609.59 1320.21 L 708.528 1253.35 L 1039.63 1177.18 L 1068.58 1091 L 972.235 1039.17 L 820.055 1016.88 L 664.963 994.212 L 551.374 955.93 L 396.282 920.622 L 265.265 889.773 L 194.589 857.528 L 147.26 816.846 L 81 750.47 L 131.241 619.147 L 209.274 576.086 L 306.481 543.75 L 359.361 508.442 L 439.46 477.222 L 513.337 461.983 L 572.438 420.728 L 708.528 377.243 L 835.285 337.475 L 930.159 301.051 L 1092.69 262.769 L 1166.57 240.098 L 1272.33 231.549 L 1357.87 199.214 L 1449.63 173.941 L 1520.4 153.871 L 1656.49 146.809 L 1751.36 135.659 L 1925.56 110.385 L 2084.97 94.7754 L 2191.51 86.227 L 2329.94 59.4669 L 2424.81 39.7685 L 2522.02 24.1584 Z" stroke-linecap="round"/>
</g>
		<g transform="matrix(1 0 0 1 388.405 -32.5451)" id="976509">
<path style="stroke: none; stroke-width: 1; stroke-dasharray: none; stroke-linecap: butt; stroke-dashoffset: 0; stroke-linejoin: miter; stroke-miterlimit: 4; is-custom-font: none; font-file-url: none; fill: rgb(0,178,255); fill-opacity: 0.03; fill-rule: nonzero; opacity: 1;" transform=" translate(-1188.405, -719.4549)" d="M 2427.2 58.7009 L 2511.9 35.7798 H 2530.81 V 243.481 L 2480.65 263.581 L 2399.24 285.091 L 2305.5 299.902 L 2224.09 331.992 L 2096.63 348.213 L 2020.98 355.971 L 1924.77 387.002 L 1831.02 393.703 L 1743.03 413.803 L 1511.96 445.892 L 1446.18 452.592 L 1321.19 501.961 L 1196.2 542.161 L 1105.74 582.361 L 1027.62 589.061 L 890.296 615.861 L 815.466 633.493 L 743.925 665.583 L 674.85 682.862 L 643.603 705.783 L 674.85 733.994 L 715.144 761.852 L 815.466 796.762 L 915.788 822.152 L 993.908 835.552 L 1081.07 858.473 L 1143.57 879.984 L 1243.07 909.252 L 1321.19 932.173 L 1412.46 942.752 L 1477.43 953.684 L 1584.33 960.384 L 1711.79 979.074 L 1831.02 989.653 L 1924.77 1000.58 L 2039.89 1011.16 L 2096.63 1057.62 L 2039.89 1126.86 L 1891 1207.7 L 1658.5 1271.67 L 1477.43 1357.79 L 1057.5 1403.13 L 815.466 1331.78 L 890.296 1290.3 L 1057.5 1247.07 L 1196.2 1224.58 L 1321.19 1194.7 V 1126.86 L 788.417 1021.73 L 627.498 1000.58 L 463.499 979.074 L 343.387 942.752 L 179.388 909.252 L 40.8474 879.984 L -33.888 849.389 L -83.9347 810.791 L -154 747.815 L -100.874 623.217 L -18.3591 582.361 L 84.43 551.682 L 140.347 518.182 L 225.045 488.561 L 303.165 474.103 L 365.661 434.961 L 509.566 393.703 L 643.603 355.971 L 743.925 321.413 L 915.788 285.091 L 993.908 263.581 L 1105.74 255.47 L 1196.2 224.791 L 1293.23 200.812 L 1368.06 181.77 L 1511.96 175.07 L 1612.29 164.491 L 1796.48 140.512 L 1965.06 125.701 L 2077.72 117.591 L 2224.09 92.2011 L 2324.41 73.5115 L 2427.2 58.7009 Z" stroke-linecap="round"/>
</g>
</g>
</g>
</svg>