<svg width="1600" height="219" viewBox="0 0 1600 219" fill="none" xmlns="http://www.w3.org/2000/svg">
  <path d="M53.5 104L4 75.5L0.5 73V218.5L1600 219V131H1599.5H1596H1569.5L1531.5 167L1451.5 182L1377.5 142C1337 134.5 1253.7 121.8 1244.5 131C1233 142.5 1144 167 1136 182C1128 197 944.5 169 916 167C893.2 165.4 801.167 124.333 758 104C716.333 113 631.1 133.2 623.5 142C614 153 560.5 182 553 182H401L327 142L224.5 131L148.5 142L53.5 104Z" fill="#E2F4FF" fill-opacity="0.66"/>
  <path d="M1780.96 63.8288L1837.97 25.3733L1842 22V218.325L0 219V100.26H0.575806H4.60645H35.124L78.8853 148.836L171.014 169.075L256.233 115.103C302.873 104.983 398.802 87.8466 409.397 100.26C422.641 115.777 525.134 148.836 534.347 169.075C543.56 189.315 754.88 151.534 787.701 148.836C813.958 146.677 919.944 91.2648 969.656 63.8288C1017.64 75.9726 1115.79 103.229 1124.55 115.103C1135.49 129.945 1197.1 169.075 1205.74 169.075H1380.78L1466 115.103L1584.04 100.26L1671.56 115.103L1780.96 63.8288Z" fill="#E2F4FF" fill-opacity="0.33"/>
  <path d="M-388.841 46.5L-452.499 3.75L-457 0V218.25L1600 219V87H1599.36H1594.86H1560.78L1511.91 141L1409.02 163.5L1313.86 103.5C1261.77 92.25 1154.65 73.2 1142.82 87C1128.03 104.25 1013.57 141 1003.28 163.5C992.995 186 757.009 144 720.358 141C691.036 138.6 572.679 77 517.165 46.5C463.581 60 353.969 90.3 344.195 103.5C331.977 120 263.175 163.5 253.53 163.5H58.0538L-37.1122 103.5L-168.93 87L-266.668 103.5L-388.841 46.5Z" fill="#E2F4FF" fill-opacity="0.22"/>
</svg>
