<svg xmlns="http://www.w3.org/2000/svg" xmlns:xlink="http://www.w3.org/1999/xlink" version="1.1" width="1000" height="1000" viewBox="0 0 1000 1000" xml:space="preserve">
<desc>Created with Fabric.js 3.5.0</desc>
<defs>
</defs>
<g transform="matrix(0.5015 0 0 0.5015 499.9955 180.54)" id="729630">
<path style="stroke: none; stroke-width: 0; stroke-dasharray: none; stroke-linecap: butt; stroke-dashoffset: 0; stroke-linejoin: miter; stroke-miterlimit: 4; is-custom-font: none; font-file-url: none; fill: rgb(233,247,255); fill-opacity: 0.63; fill-rule: nonzero; opacity: 1;" vector-effect="non-scaling-stroke" transform=" translate(-989, -360)" d="M 1959.81 687.83 L 1986 720 V 0 H -8 V 422.043 L -7.37659 423.574 L -0.517822 427.404 L 8.83484 431.234 L 27.5403 484.851 H 84.9037 L 139.773 457.277 V 375.319 L 111.091 284.17 L 196.513 148.596 L 268.84 67.4042 L 367.979 55.9149 H 497.047 L 680.984 104.936 V 130.213 L 692.83 148.596 L 745.829 167.745 L 844.345 246.638 H 945.354 C 980.271 246.638 1037.22 194.043 1061.33 167.745 L 1123.68 104.936 L 1213.47 67.4042 L 1277.69 27.5745 L 1426.08 67.4042 L 1363.11 104.936 L 1326.94 148.596 L 1342.53 214.468 L 1326.94 270.383 L 1342.53 330.894 V 391.404 L 1391.79 484.851 L 1467.86 553.021 L 1522.73 611.234 L 1553.28 636.511 H 1608.15 H 1631.22 L 1682.35 594.383 L 1699.81 553.021 L 1658.03 540.766 L 1646.18 457.277 L 1618.13 391.404 L 1608.15 359.234 V 310.213 L 1618.13 284.17 L 1699.81 214.468 L 1754.68 167.745 H 1803.93 H 1847.58 L 1891.23 214.468 V 310.213 L 1866.91 391.404 L 1857.56 438.128 V 484.851 V 524.681 L 1866.91 580.596 L 1891.23 636.511 L 1929.26 674.043 L 1959.81 687.83 Z" stroke-linecap="round"/>
</g>
<g transform="matrix(0.4351 0 0 0.4351 350.0379 156.636)" id="983795">
<path style="stroke: none; stroke-width: 0; stroke-dasharray: none; stroke-linecap: butt; stroke-dashoffset: 0; stroke-linejoin: miter; stroke-miterlimit: 4; is-custom-font: none; font-file-url: none; fill: rgb(233,247,255); fill-rule: nonzero; opacity: 1;" vector-effect="non-scaling-stroke" transform=" translate(-795.5, -360)" d="M 12.1313 687.83 L -9 720 V 0 H 1600 V 422.043 L 1599.5 423.574 L 1593.96 427.404 L 1586.42 431.234 L 1571.32 484.851 H 1525.03 L 1480.76 457.277 V 375.319 L 1503.9 284.17 L 1434.97 148.596 L 1376.61 67.4042 L 1296.61 55.9149 H 1192.47 L 1044.04 104.936 V 130.213 L 1034.49 148.596 L 991.72 167.745 L 912.226 246.638 H 830.719 C 802.544 246.638 756.592 194.043 737.137 167.745 L 686.825 104.936 L 614.374 67.4042 L 562.552 27.5745 L 442.808 67.4042 L 493.624 104.936 L 522.805 148.596 L 510.227 214.468 L 522.805 270.383 L 510.227 330.894 V 391.404 L 470.48 484.851 L 409.099 553.021 L 364.823 611.234 L 340.17 636.511 H 295.895 H 277.279 L 236.023 594.383 L 221.935 553.021 L 255.645 540.766 L 265.204 457.277 L 287.845 391.404 L 295.895 359.234 V 310.213 L 287.845 284.17 L 221.935 214.468 L 177.66 167.745 H 137.913 H 102.694 L 67.4753 214.468 V 310.213 L 87.0973 391.404 L 94.6442 438.128 V 484.851 V 524.681 L 87.0973 580.596 L 67.4753 636.511 L 36.7846 674.043 L 12.1313 687.83 Z" stroke-linecap="round"/>
</g>
</svg>
