<svg width="1385" height="829" viewBox="0 0 1385 829" fill="none" xmlns="http://www.w3.org/2000/svg">
  <path d="M1385 612L1353.86 636.641L1310.17 656.513L1260.45 678.769L1220.77 724.077L1173.06 741.564L1134.89 784.487L1085.17 801.974L1039.97 829L985.223 813.103L921.44 829L891.808 801.974L852.132 813.103L819.989 829L778.806 813.103L760.223 822.641L735.614 829L725.569 822.641L710 829H735.614H819.989H921.44H1039.97H1385V612Z" fill="#00B2FF" fill-opacity="0.03"/>
  <path d="M642.052 46.6843L687.702 0H-143V261.008L-123.711 289.301L-103.136 330.327L-81.9189 400.353L-67.7739 451.989L-53.6288 495.844L-81.9189 594.164L-67.7739 683.996L-53.6288 738.461L-30.9056 827.585L91.6797 829H770L727.565 813.439L687.702 777.364L664.555 738.461L629.192 707.338L573.255 683.996L537.892 720.07L490.956 707.338L446.592 683.996L384.225 666.114L340.504 683.996L300.641 655.702L312.214 594.164L277.495 524.137L225.415 495.844L178.479 451.989L155.333 381.962V330.327L178.479 289.301L225.415 261.008L260.778 203.713L277.495 173.298L300.641 157.736H340.504L366.223 173.298H404.157L446.592 157.736L510.888 142.175L527.605 99.0273L573.255 64.3677L642.052 46.6843Z" fill="#00B2FF" fill-opacity="0.03"/>
  <path d="M-159.768 629.783L-219.528 572.964V829H181.72L155.607 795.33L118.445 763.764L87.309 747.63L42.112 763.764L-11.6223 747.63L-40.7492 713.258L-89.9637 688.706L-133.654 656.439L-159.768 629.783Z" fill="#00B2FF" fill-opacity="0.03"/>
  <path d="M482.079 783.946L466 815.137V829H741.348H886.559H1014.18H1178.99H1385V490.746V241.907V0H1046.34L1025.74 9.70401L995.091 29.112L959.416 52.6789L931.781 79.7115L909.17 104.665L886.559 141.401L875.003 180.217V231.51L886.559 303.597L896.609 358.355L918.214 426.977L938.815 457.475L977.002 503.222L1014.18 529.562H1067.95L1101.11 520.551L1122.72 490.746L1113.67 457.475L1101.11 426.977L1094.58 404.103L1075.48 390.24L1057.4 358.355L1046.34 323.005L1067.95 286.268L1094.58 264.781L1113.67 250.918L1145.83 231.51L1189.54 190.615L1228.73 169.82L1260.89 157.344H1290.03H1315.66L1346.31 180.217L1370.93 206.557L1385 241.907V490.746L1378.47 529.562L1359.37 564.912L1335.26 608.58L1308.12 650.862L1278.98 704.927L1253.36 751.368L1228.73 794.343L1213.66 815.137L1178.99 829H1014.18L986.046 824.841L964.441 804.74L938.815 794.343L918.214 804.74L886.559 829H741.348L734.314 824.841L725.772 816.523L713.211 804.74L689.595 783.946L676.028 763.844L659.95 735.426L639.349 717.404L613.221 704.927L588.098 717.404L555.438 735.426L517.251 763.844L482.079 783.946Z" fill="#00B2FF" fill-opacity="0.03"/>
  <path d="M734.376 31.776L790 0H-492V829H458.905L378.559 809.228L316.755 787.338L247.887 769.685L167.541 787.338L90.7274 752.738L0.669556 735.084L-92.037 752.738L-206.817 769.685L-296.875 735.084L-346.318 700.484V616.454L-330.425 557.139L-296.875 512.652L-235.07 485.113L-206.817 442.745V381.312L-175.914 304.343L-67.3153 266.918L0.669556 232.318L50.1131 175.827L118.098 151.112L192.263 111.569L267.311 133.459L341.477 111.569L424.471 86.8543L492.456 46.6048L563.973 31.776L625.777 46.6048H678.752L734.376 31.776Z" fill="#00B2FF" fill-opacity="0.06"/>
</svg>
